<?xml version="1.0" encoding="UTF-8" standalone="no"?>
<!DOCTYPE svg PUBLIC "-//W3C//DTD SVG 1.1//EN" "http://www.w3.org/Graphics/SVG/1.1/DTD/svg11.dtd">
<svg width="100%" height="100%" viewBox="0 0 450 300" version="1.1" xmlns="http://www.w3.org/2000/svg" xmlns:xlink="http://www.w3.org/1999/xlink" xml:space="preserve" xmlns:serif="http://www.serif.com/" style="fill-rule:evenodd;clip-rule:evenodd;stroke-miterlimit:10;">
    <g transform="matrix(1,0,0,1,-500,0)">
        <g id="Construction" transform="matrix(0.75,0,0,1,500,-340)">
            <rect x="0" y="340" width="600" height="300" style="fill:rgb(0,71,171);"/>
            <clipPath id="_clip1">
                <rect x="0" y="340" width="600" height="300"/>
            </clipPath>
            <g clip-path="url(#_clip1)">
                <g transform="matrix(1.33333,0,0,1,300,490)">
                    <g transform="matrix(1,0,0,1,-150,-150)">
                        <g id="Monogram" transform="matrix(0.385714,0,0,0.4,-81.4286,30)">
                            <g>
                                <path d="M600,215L600,120L641.481,160M537.778,440L537.778,450.005C537.778,466.571 551.704,480 568.884,480C568.885,480 568.887,480 568.889,480C577.14,480 585.053,476.839 590.888,471.213C596.722,465.587 600,457.956 600,450C600,444.26 600,305 600,305" style="fill:none;stroke:white;stroke-width:35.63px;stroke-linecap:round;stroke-miterlimit:3;"/>
                                <path d="M600,232.5L600,215M600,305L600,287.5" style="fill:none;stroke:white;stroke-width:35.63px;stroke-linejoin:round;stroke-miterlimit:3;"/>
                                <path d="M646.667,340C646.667,340 703.704,340 703.704,340C726.613,340 745.185,322.091 745.185,300C745.185,300 745.185,300 745.185,300C745.185,277.909 726.613,260 703.704,260C703.704,260 454.815,260 454.815,260L496.296,300M496.296,400L485.926,400C477.675,400 469.762,396.839 463.927,391.213C458.093,385.587 454.815,377.956 454.815,370C454.815,370 454.815,370 454.815,370C454.815,362.043 458.093,354.413 463.927,348.787C469.762,343.161 477.675,340 485.926,340C491.878,340 553.333,340 553.333,340" style="fill:none;stroke:white;stroke-width:35.63px;stroke-linecap:round;stroke-miterlimit:3;"/>
                                <path d="M628.519,340L646.667,340M553.333,340L571.481,340" style="fill:none;stroke:white;stroke-width:35.63px;stroke-linejoin:round;stroke-miterlimit:3;"/>
                            </g>
                        </g>
                        <g id="Flower" transform="matrix(0,0.555556,-0.666667,5.55112e-17,492.667,-179.333)">
                            <g transform="matrix(1.4988e-16,-1.5,1.8,0,411,400)">
                                <g transform="matrix(1,0,0,1,-25,-25)">
                                    <g id="Petal" transform="matrix(0.666667,2.55651e-17,2.99461e-17,0.666667,-228.3,9)">
                                        <path d="M380,60C380,60 382.59,55.539 385.191,51.059C388.442,45.459 388.435,38.545 385.172,32.952C382.557,28.468 379.951,24 379.951,24C379.951,24 377.361,28.44 374.754,32.909C371.478,38.525 371.485,45.471 374.772,51.08C377.394,55.553 380,60 380,60Z" style="fill:white;"/>
                                    </g>
                                </g>
                            </g>
                            <g transform="matrix(1.8,-9.18485e-17,-3.96619e-17,1.5,456,362.5)">
                                <g transform="matrix(1,0,0,1,-25,-25)">
                                    <g id="Petal1" serif:id="Petal" transform="matrix(0.666667,2.55651e-17,2.99461e-17,0.666667,-228.3,9)">
                                        <path d="M380,60C380,60 382.59,55.539 385.191,51.059C388.442,45.459 388.435,38.545 385.172,32.952C382.557,28.468 379.951,24 379.951,24C379.951,24 377.361,28.44 374.754,32.909C371.478,38.525 371.485,45.471 374.772,51.08C377.394,55.553 380,60 380,60Z" style="fill:white;"/>
                                    </g>
                                </g>
                            </g>
                            <g transform="matrix(-3.70317e-16,1.5,-1.8,-1.83697e-16,501,400)">
                                <g transform="matrix(1,0,0,1,-25,-25)">
                                    <g id="Petal2" serif:id="Petal" transform="matrix(0.666667,2.55651e-17,2.99461e-17,0.666667,-228.3,9)">
                                        <path d="M380,60C380,60 382.59,55.539 385.191,51.059C388.442,45.459 388.435,38.545 385.172,32.952C382.557,28.468 379.951,24 379.951,24C379.951,24 377.361,28.44 374.754,32.909C371.478,38.525 371.485,45.471 374.772,51.08C377.394,55.553 380,60 380,60Z" style="fill:white;"/>
                                    </g>
                                </g>
                            </g>
                            <g transform="matrix(-1.8,-1.79151e-15,2.29969e-15,-1.5,456,437.5)">
                                <g transform="matrix(1,0,0,1,-25,-25)">
                                    <g id="Petal3" serif:id="Petal" transform="matrix(0.666667,2.55651e-17,2.99461e-17,0.666667,-228.3,9)">
                                        <path d="M380,60C380,60 382.59,55.539 385.191,51.059C388.442,45.459 388.435,38.545 385.172,32.952C382.557,28.468 379.951,24 379.951,24C379.951,24 377.361,28.44 374.754,32.909C371.478,38.525 371.485,45.471 374.772,51.08C377.394,55.553 380,60 380,60Z" style="fill:white;"/>
                                    </g>
                                </g>
                            </g>
                        </g>
                    </g>
                </g>
                <g id="Tint" transform="matrix(1.2,0,0,1,0,340)">
                    <rect x="0" y="0" width="500" height="300" style="fill:white;fill-opacity:0.6;"/>
                </g>
                <g id="Lines" transform="matrix(1.11111,0,0,1,66.6667,-2.27374e-13)">
                    <g transform="matrix(1.52165,4.75587e-16,6.98613e-17,0.65,-247.683,373.5)">
                        <g transform="matrix(0.788617,-5.7701e-16,-7.06331e-17,1.53846,123.342,-51.5385)">
                            <path d="M277.576,73.25L276.451,74L277.576,74.75" style="fill:none;stroke:black;stroke-width:0.5px;"/>
                            <path d="M298.424,73.25L299.549,74L298.424,74.75" style="fill:none;stroke:black;stroke-width:0.5px;"/>
                            <path d="M276.451,74L299.549,74" style="fill:none;stroke:black;stroke-width:0.5px;stroke-miterlimit:3;"/>
                        </g>
                    </g>
                    <g transform="matrix(1.39485,1.47595e-14,9.82746e-15,0.46129,-275.243,482.935)">
                        <g transform="matrix(0.86031,-2.75265e-14,-1.52736e-14,2.16783,154.313,-309.86)">
                            <path d="M225.75,167.576L225,166.451L224.25,167.576" style="fill:none;stroke:black;stroke-width:0.5px;"/>
                            <path d="M225.75,208.424L225,209.549L224.25,208.424" style="fill:none;stroke:black;stroke-width:0.5px;"/>
                            <path d="M225,166.451C225,170.797 225,205.203 225,209.549" style="fill:none;stroke:black;stroke-width:0.5px;stroke-miterlimit:3;"/>
                        </g>
                    </g>
                    <g transform="matrix(1.39485,1.13015e-05,2.5687e-06,0.210154,-275.243,475.443)">
                        <g transform="matrix(0.86031,-4.62651e-05,-8.76294e-06,4.75842,154.314,-644.502)">
                            <path d="M225.754,146.576L225.004,145.451L224.254,146.576" style="fill:none;stroke:black;stroke-width:0.5px;"/>
                            <path d="M225.75,164.424L225,165.549L224.25,164.424" style="fill:none;stroke:black;stroke-width:0.5px;"/>
                            <path d="M225.004,145.451C225.004,148.21 225.001,162.79 225,165.549" style="fill:none;stroke:black;stroke-width:0.5px;stroke-miterlimit:3;"/>
                        </g>
                    </g>
                    <g transform="matrix(1.39485,2.27114e-14,1.67215e-14,0.304032,-275.243,418.798)">
                        <g transform="matrix(0.86031,-6.42656e-14,-3.94303e-14,3.28912,154.313,-259.178)">
                            <path d="M225.75,95.576L225,94.451L224.25,95.576" style="fill:none;stroke:black;stroke-width:0.5px;"/>
                            <path d="M225.75,121.424L225,122.549L224.25,121.424" style="fill:none;stroke:black;stroke-width:0.5px;"/>
                            <path d="M225,94.451C225,97.831 225,119.169 225,122.549" style="fill:none;stroke:black;stroke-width:0.5px;stroke-miterlimit:3;"/>
                        </g>
                    </g>
                    <g transform="matrix(1.39485,3.79037e-14,2.47456e-14,0.167742,-275.248,409.613)">
                        <g transform="matrix(0.86031,-1.944e-13,-1.05762e-13,5.96154,154.317,-415)">
                            <path d="M225.745,79.576L224.995,78.451L224.245,79.576" style="fill:none;stroke:black;stroke-width:0.5px;"/>
                            <path d="M225.745,92.424L224.995,93.549L224.245,92.424" style="fill:none;stroke:black;stroke-width:0.5px;"/>
                            <path d="M224.995,78.451L224.995,93.549" style="fill:none;stroke:black;stroke-width:0.5px;stroke-miterlimit:3;"/>
                        </g>
                    </g>
                    <g transform="matrix(1.39485,3.6522e-14,2.37799e-14,0.18871,-275.243,478.565)">
                        <g transform="matrix(0.86031,-1.66501e-13,-9.03419e-14,5.29915,154.313,-734.274)">
                            <path d="M226.573,133.25L225.448,134L226.573,134.75" style="fill:none;stroke:black;stroke-width:0.5px;"/>
                            <path d="M263.424,133.25L264.549,134L263.424,134.75" style="fill:none;stroke:black;stroke-width:0.5px;"/>
                            <path d="M225.448,134C229.555,134 260.442,134 264.549,134" style="fill:none;stroke:black;stroke-width:0.5px;stroke-miterlimit:3;"/>
                        </g>
                    </g>
                    <g transform="matrix(1.39485,3.6522e-14,2.37799e-14,0.18871,-323.248,478.565)">
                        <g transform="matrix(0.86031,-1.66501e-13,-9.03419e-14,5.29915,188.729,-734.274)">
                            <path d="M186.569,133.25L185.444,134L186.569,134.75" style="fill:none;stroke:black;stroke-width:0.5px;"/>
                            <path d="M223.42,133.25L224.545,134L223.42,134.75" style="fill:none;stroke:black;stroke-width:0.5px;"/>
                            <path d="M185.444,134C189.551,134 220.437,134 224.545,134" style="fill:none;stroke:black;stroke-width:0.5px;stroke-miterlimit:3;"/>
                        </g>
                    </g>
                    <g transform="matrix(1.39485,3.6522e-14,2.37799e-14,0.18871,-323.248,478.565)">
                        <g transform="matrix(0.86031,-1.66501e-13,-9.03419e-14,5.29915,188.729,-734.274)">
                            <path d="M170.576,133.25L169.451,134L170.576,134.75" style="fill:none;stroke:black;stroke-width:0.5px;"/>
                            <path d="M183.413,133.25L184.538,134L183.413,134.75" style="fill:none;stroke:black;stroke-width:0.5px;"/>
                            <path d="M169.451,134C171.758,134 182.23,134 184.538,134" style="fill:none;stroke:black;stroke-width:0.5px;stroke-miterlimit:3;"/>
                        </g>
                    </g>
                    <g transform="matrix(1.39485,-1.28979e-16,-1.38182e-16,0.65,-275.243,455.5)">
                        <g transform="matrix(0.86031,1.7071e-16,1.52409e-16,1.53846,154.313,-177.692)">
                            <path d="M201.75,207.576L201,206.451L200.25,207.576" style="fill:none;stroke:black;stroke-width:0.5px;"/>
                            <path d="M201.75,208.424L201,209.549L200.25,208.424" style="fill:none;stroke:black;stroke-width:0.5px;"/>
                            <path d="M201,206.451L201,209.549" style="fill:none;stroke:black;stroke-width:0.5px;stroke-miterlimit:3;"/>
                        </g>
                    </g>
                    <g transform="matrix(-1.01455e-16,1.16237,-0.78,-2.34555e-16,270.6,149.631)">
                        <g transform="matrix(-3.10446e-16,-1.53846,0.86031,-1.11901e-16,163.776,423.846)">
                            <path d="M183.424,190.75L184.549,190L183.424,189.25" style="fill:none;stroke:black;stroke-width:0.5px;"/>
                            <path d="M182.576,190.75L181.451,190L182.576,189.25" style="fill:none;stroke:black;stroke-width:0.5px;"/>
                            <path d="M184.549,190L181.451,190" style="fill:none;stroke:black;stroke-width:0.5px;stroke-miterlimit:3;"/>
                        </g>
                    </g>
                    <g transform="matrix(2.30426e-16,1.16237,-0.858,-3.98769e-16,281.94,149.631)">
                        <g transform="matrix(-4.79811e-16,-1.3986,0.86031,2.31046e-16,163.776,398.531)">
                            <path d="M212.424,166.75L213.549,166L212.424,165.25" style="fill:none;stroke:black;stroke-width:0.5px;"/>
                            <path d="M182.576,166.75L181.451,166L182.576,165.25" style="fill:none;stroke:black;stroke-width:0.5px;"/>
                            <path d="M213.549,166L181.451,166" style="fill:none;stroke:black;stroke-width:0.5px;stroke-miterlimit:3;"/>
                        </g>
                    </g>
                    <g transform="matrix(1.62732,6.85914e-14,4.59585e-14,0.65,-356.116,452.5)">
                        <g transform="matrix(0.737409,-7.78152e-14,-4.34489e-14,1.53846,181.966,-173.077)">
                            <path d="M218.25,144L218.25,146" style="fill:none;stroke:black;stroke-width:0.5px;"/>
                            <path d="M231.75,144L231.75,146" style="fill:none;stroke:black;stroke-width:0.5px;"/>
                            <path d="M218.25,145C219.97,145 230.03,145 231.75,145" style="fill:none;stroke:black;stroke-width:0.5px;stroke-miterlimit:3;"/>
                        </g>
                    </g>
                    <g transform="matrix(1.62732,6.83708e-14,4.581e-14,0.65,-356.116,430.5)">
                        <g transform="matrix(0.737409,-7.75649e-14,-4.33086e-14,1.53846,181.966,-139.231)">
                            <path d="M218.25,122L218.25,124" style="fill:none;stroke:black;stroke-width:0.5px;"/>
                            <path d="M231.75,122L231.75,124" style="fill:none;stroke:black;stroke-width:0.5px;"/>
                            <path d="M218.25,123C219.97,123 230.03,123 231.75,123" style="fill:none;stroke:black;stroke-width:0.5px;stroke-miterlimit:3;"/>
                        </g>
                    </g>
                    <g transform="matrix(-8.32831e-14,1.3561,-0.78,3.88401e-14,249,2.23642)">
                        <g transform="matrix(4.40631e-14,-1.53846,0.737409,-7.87355e-14,249.07,396.154)">
                            <path d="M226,127.25L224,127.25" style="fill:none;stroke:black;stroke-width:0.5px;"/>
                            <path d="M226,140.75L224,140.75" style="fill:none;stroke:black;stroke-width:0.5px;"/>
                            <path d="M225,127.25C225,128.97 225,139.03 225,140.75" style="fill:none;stroke:black;stroke-width:0.5px;stroke-miterlimit:3;"/>
                        </g>
                    </g>
                    <g transform="matrix(1.62787,6.87528e-14,4.60668e-14,0.65,-356.309,473.5)">
                        <g transform="matrix(0.737161,-7.79721e-14,-4.35367e-14,1.53846,182.023,-205.385)">
                            <path d="M218.245,165L218.245,167" style="fill:none;stroke:black;stroke-width:0.5px;"/>
                            <path d="M231.75,165L231.75,167" style="fill:none;stroke:black;stroke-width:0.5px;"/>
                            <path d="M218.245,166C219.965,166 230.03,166 231.75,166" style="fill:none;stroke:black;stroke-width:0.5px;stroke-miterlimit:3;"/>
                        </g>
                    </g>
                    <g transform="matrix(-8.22666e-14,1.3561,-0.78,3.84029e-14,262.2,34.2364)">
                        <g transform="matrix(4.35671e-14,-1.53846,0.737409,-7.77745e-14,225.473,413.077)">
                            <path d="M237,159.25L235,159.25" style="fill:none;stroke:black;stroke-width:0.5px;"/>
                            <path d="M237,172.75L235,172.75" style="fill:none;stroke:black;stroke-width:0.5px;"/>
                            <path d="M236,159.25C236,160.97 236,171.03 236,172.75" style="fill:none;stroke:black;stroke-width:0.5px;stroke-miterlimit:3;"/>
                        </g>
                    </g>
                    <g transform="matrix(-8.32831e-14,1.3561,-0.78,3.88401e-14,235.8,34.2364)">
                        <g transform="matrix(4.40631e-14,-1.53846,0.737409,-7.87355e-14,225.473,379.231)">
                            <path d="M215,159.25L213,159.25" style="fill:none;stroke:black;stroke-width:0.5px;"/>
                            <path d="M215,172.75L213,172.75" style="fill:none;stroke:black;stroke-width:0.5px;"/>
                            <path d="M214,159.25C214,160.97 214,171.03 214,172.75" style="fill:none;stroke:black;stroke-width:0.5px;stroke-miterlimit:3;"/>
                        </g>
                    </g>
                    <g transform="matrix(1.56307,-4.18882e-13,3.14566e-13,0.65,-320.565,473.5)">
                        <g transform="matrix(0.767719,4.94744e-13,-3.09613e-13,1.53846,166.701,-205.385)">
                            <path d="M237.576,165.25L236.451,166L237.576,166.75" style="fill:none;stroke:black;stroke-width:0.5px;"/>
                            <path d="M263.424,165.25L264.549,166L263.424,166.75" style="fill:none;stroke:black;stroke-width:0.5px;"/>
                            <path d="M236.451,166L264.549,166" style="fill:none;stroke:black;stroke-width:0.5px;stroke-miterlimit:3;"/>
                        </g>
                    </g>
                    <g transform="matrix(-7.24707e-16,0.396263,-0.78,1.02518e-15,334.2,275.124)">
                        <g transform="matrix(3.9802e-15,-1.53846,2.52358,-2.34468e-15,163.719,505.385)">
                            <path d="M288.75,70.576L288,69.451L287.25,70.576" style="fill:none;stroke:black;stroke-width:0.5px;"/>
                            <path d="M288.75,77.424L288,78.549L287.25,77.424" style="fill:none;stroke:black;stroke-width:0.5px;"/>
                            <path d="M288,69.451L288,78.549" style="fill:none;stroke:black;stroke-width:0.5px;stroke-miterlimit:3;"/>
                        </g>
                    </g>
                    <g transform="matrix(-2.1,2.14313e-16,-2.57176e-16,-1.75,626.4,885.5)">
                        <g transform="matrix(-0.571429,-6.99798e-17,6.99798e-17,-0.571429,326.857,311.714)">
                            <path d="M201,206.75C200.586,206.75 200.25,206.414 200.25,206C200.25,205.586 200.586,205.25 201,205.25C201.414,205.25 201.75,205.586 201.75,206C201.75,206.414 201.414,206.75 201,206.75Z"/>
                            <path d="M208,206L194,206C194,202.137 197.137,199 201,199C204.863,199 208,202.137 208,206Z" style="fill:none;stroke:black;stroke-width:0.5px;stroke-linecap:square;stroke-miterlimit:3;stroke-dasharray:0.5,2,0,0,0,0;"/>
                        </g>
                    </g>
                    <g transform="matrix(1.28588e-16,-1.75,2.1,1.07157e-16,-245.414,900.988)">
                        <g transform="matrix(3.49899e-17,0.571429,-0.571429,3.49899e-17,320.565,88.2924)">
                            <path d="M184.238,189.988C184.238,189.574 184.574,189.238 184.988,189.238C185.402,189.238 185.738,189.574 185.738,189.988C185.738,190.402 185.402,190.738 184.988,190.738C184.574,190.738 184.238,190.402 184.238,189.988Z"/>
                            <path d="M184.988,196.988L184.988,182.988C188.852,182.988 191.988,186.125 191.988,189.988C191.988,193.852 188.852,196.988 184.988,196.988Z" style="fill:none;stroke:black;stroke-width:0.5px;stroke-linecap:square;stroke-miterlimit:3;stroke-dasharray:0.5,2,0,0,0,0;"/>
                        </g>
                    </g>
                    <g transform="matrix(3.6,-7.34788e-16,8.81746e-16,3,-567.6,-32)">
                        <g transform="matrix(0.333333,8.16431e-17,-8.16431e-17,0.333333,141,124)">
                            <circle cx="213" cy="210" r="0.75"/>
                            <path d="M201,210L225,210C225,216.623 219.623,222 213,222C206.377,222 201,216.623 201,210Z" style="fill:none;stroke:black;stroke-width:0.5px;stroke-linecap:square;stroke-miterlimit:3;stroke-dasharray:0.5,2,0,0,0,0;"/>
                        </g>
                    </g>
                    <g transform="matrix(1.10218e-15,3,-3.6,9.18485e-16,855.6,-118)">
                        <g transform="matrix(1.02054e-16,-0.333333,0.333333,1.02054e-16,152.667,254.333)">
                            <path d="M181.75,178C181.75,178.414 181.414,178.75 181,178.75C180.586,178.75 180.25,178.414 180.25,178C180.25,177.586 180.586,177.25 181,177.25C181.414,177.25 181.75,177.586 181.75,178Z"/>
                            <path d="M181,166L181,190C174.377,190 169,184.623 169,178C169,171.377 174.377,166 181,166Z" style="fill:none;stroke:black;stroke-width:0.5px;stroke-linecap:square;stroke-miterlimit:3;stroke-dasharray:0.5,2,0,0,0,0;"/>
                        </g>
                    </g>
                    <g transform="matrix(-8.81616e-16,-3.99941,4.79929,-7.3468e-16,-673.06,1337.87)">
                        <g transform="matrix(-4.5931e-17,0.250037,-0.250037,-4.5931e-17,249.505,127.74)">
                            <path d="M264.252,149.998C264.252,149.584 264.588,149.248 265.002,149.248C265.416,149.248 265.752,149.584 265.752,149.998C265.752,150.412 265.416,150.748 265.002,150.748C264.588,150.748 264.252,150.412 264.252,149.998Z"/>
                            <path d="M265.002,165.995L265.002,134C273.832,134 281,141.168 281,149.998C281,158.827 273.832,165.995 265.002,165.995Z" style="fill:none;stroke:black;stroke-width:0.5px;stroke-linecap:square;stroke-miterlimit:3;stroke-dasharray:0.5,2,0,0,0,0;"/>
                        </g>
                    </g>
                    <g transform="matrix(1.03471e-12,0.6,-0.609231,-1.45912e-12,234.185,309)">
                        <path d="M328.75,53.485L328.75,53.977L327.917,53.977L327.917,53.49L328.75,53.485ZM327.917,54.962L328.75,54.962L328.75,55.947L327.917,55.947L327.917,54.962ZM327.917,56.932L328.75,56.932L328.75,57.917L327.917,57.917L327.917,56.932ZM327.917,58.902L328.75,58.902L328.75,59.886L327.917,59.886L327.917,58.902ZM327.917,60.871L328.75,60.871L328.75,61.364L327.917,61.358L327.917,60.871Z"/>
                    </g>
                    <g transform="matrix(1.03471e-12,0.6,-0.609231,-1.45912e-12,255.79,309)">
                        <path d="M328.75,53.485L328.75,53.977L327.917,53.977L327.917,53.49L328.75,53.485ZM327.917,54.962L328.75,54.962L328.75,55.947L327.917,55.947L327.917,54.962ZM327.917,56.932L328.75,56.932L328.75,57.917L327.917,57.917L327.917,56.932ZM327.917,58.902L328.75,58.902L328.75,59.886L327.917,59.886L327.917,58.902ZM327.917,60.871L328.75,60.871L328.75,61.364L327.917,61.358L327.917,60.871Z"/>
                    </g>
                    <g transform="matrix(-0.72,-8.62207e-13,3.50189e-12,-0.507692,446.389,512.154)">
                        <path d="M328.349,60.871L328.765,60.87L328.766,61.357L328.349,60.871ZM328.349,60.871L327.932,61.359L327.931,60.872L328.349,60.871ZM328.333,52.992L328.75,53.489L328.751,53.976L327.918,53.978L327.917,53.491L328.333,52.992ZM327.92,54.963L328.753,54.961L328.755,55.946L327.922,55.948L327.92,54.963ZM327.924,56.933L328.757,56.931L328.759,57.916L327.925,57.918L327.924,56.933ZM327.927,58.903L328.761,58.9L328.763,59.885L327.929,59.888L327.927,58.903Z"/>
                    </g>
                    <g transform="matrix(-0.72,-8.62207e-13,3.50189e-12,-0.507692,446.372,494.154)">
                        <path d="M328.325,60.871L328.743,60.872L328.742,61.359L328.325,60.871ZM328.325,60.871L327.909,61.358L327.909,60.871L328.325,60.871ZM328.333,52.992L328.75,53.491L328.75,53.978L327.916,53.977L327.917,53.49L328.333,52.992ZM327.915,54.962L328.749,54.963L328.748,55.948L327.914,55.946L327.915,54.962ZM327.913,56.931L328.747,56.932L328.746,57.917L327.912,57.916L327.913,56.931ZM327.911,58.901L328.745,58.902L328.744,59.887L327.91,59.886L327.911,58.901Z"/>
                    </g>
                    <g transform="matrix(0.431998,0.00545261,0.0018455,0.101538,-13.4666,462.914)">
                        <path d="M405.798,89.85L406.503,87.377L406.491,89.977L405.102,90.051L405.113,87.451L405.798,89.85ZM405.011,111.066L406.401,110.992L406.378,116.246L404.989,116.32L405.011,111.066ZM404.898,137.335L406.287,137.261L406.265,142.515L404.876,142.589L404.898,137.335ZM404.785,163.603L406.174,163.53L406.151,168.783L404.762,168.857L404.785,163.603ZM404.672,189.872L406.061,189.799L406.038,195.052L404.649,195.126L404.672,189.872ZM404.558,216.141L405.947,216.067L405.925,221.321L404.536,221.395L404.558,216.141ZM404.445,242.41L405.834,242.336L405.823,244.936L405.118,247.463L404.434,245.009L404.445,242.41Z"/>
                    </g>
                    <g transform="matrix(0.431998,0.00545261,0.0018455,0.101538,-13.4666,462.914)">
                        <path d="M361.336,92.237L361.85,88.025L362.815,91.446L361.818,94.982L361.048,92.253L360.642,92.274L360.663,87.349L361.336,92.237ZM405.118,247.463L404.423,247.5L404.429,246.057L403.659,243.328L404.657,239.792L405.622,243.214L405.118,247.463ZM364.742,105.35L365.74,101.814L367.68,108.694L366.683,112.229L364.742,105.35ZM369.607,122.597L370.604,119.062L372.545,125.941L371.547,129.477L369.607,122.597ZM374.472,139.844L375.469,136.309L377.409,143.188L376.412,146.724L374.472,139.844ZM379.336,157.092L380.334,153.556L382.274,160.436L381.277,163.971L379.336,157.092ZM384.201,174.339L385.198,170.803L387.138,177.683L386.141,181.218L384.201,174.339ZM389.066,191.586L390.063,188.051L392.003,194.93L391.006,198.465L389.066,191.586ZM393.93,208.834L394.927,205.298L396.868,212.178L395.871,215.713L393.93,208.834ZM398.795,226.081L399.792,222.545L401.732,229.425L400.735,232.96L398.795,226.081Z"/>
                    </g>
                    <g transform="matrix(0.431998,0.00545261,0.0018455,0.101538,51.3306,408.917)">
                        <path d="M366.284,229.828L366.313,224.902L367.047,224.863L367.026,229.788L366.284,229.828ZM372.956,229.47L372.978,224.544L374.46,224.464L374.439,229.39L372.956,229.47ZM380.37,229.071L380.391,224.146L381.874,224.066L381.853,228.992L380.37,229.071ZM387.783,228.673L387.805,223.748L389.287,223.668L389.266,228.594L387.783,228.673ZM395.197,228.275L395.218,223.35L396.701,223.27L396.68,228.196L395.197,228.275ZM402.611,227.877L402.632,222.952L404.114,222.872L404.093,227.797L402.611,227.877ZM410.024,227.479L410.045,222.554L410.779,222.514L410.765,227.439L410.024,227.479Z"/>
                    </g>
                    <g transform="matrix(0.431998,0.00545261,0.0018455,0.101538,51.3306,408.917)">
                        <path d="M366.997,72.213L367.511,68.001L368.476,71.423L367.479,74.958L366.709,72.228L366.302,72.25L366.323,67.325L366.997,72.213ZM410.765,227.439L410.071,227.476L410.077,226.034L409.307,223.304L410.305,219.769L411.269,223.191L410.765,227.439ZM370.402,85.325L371.399,81.79L373.339,88.67L372.342,92.205L370.402,85.325ZM375.265,102.572L376.262,99.037L378.202,105.917L377.205,109.453L375.265,102.572ZM380.128,119.82L381.126,116.285L383.066,123.165L382.068,126.7L380.128,119.82ZM384.991,137.067L385.989,133.532L387.929,140.412L386.931,143.947L384.991,137.067ZM389.855,154.314L390.852,150.779L392.792,157.659L391.794,161.194L389.855,154.314ZM394.718,171.562L395.715,168.027L397.655,174.907L396.658,178.442L394.718,171.562ZM399.581,188.809L400.578,185.274L402.518,192.154L401.521,195.689L399.581,188.809ZM404.444,206.057L405.441,202.522L407.381,209.402L406.384,212.937L404.444,206.057Z"/>
                    </g>
                    <g transform="matrix(1.2,0,0,0.663158,-60,363.916)">
                        <g transform="matrix(1,-0,-0,1.50794,3.29692e-12,-36.0635)">
                            <path d="M300.625,74C300.625,73.793 300.793,73.625 301,73.625C301.207,73.625 301.375,73.793 301.375,74C301.375,74.207 301.207,74.375 301,74.375C300.793,74.375 300.625,74.207 300.625,74Z"/>
                            <path d="M300.75,133.75L300.75,133.739L301.25,133.739L301.25,133.997L301,134.25L300.743,134.25L300.743,133.75L300.75,133.75ZM265,134.25L265.003,133.75L265.257,133.75L265.257,134.25L265,134.25ZM267.314,134.25L267.314,133.75L267.829,133.75L267.829,134.25L267.314,134.25ZM269.886,134.25L269.886,133.75L270.4,133.75L270.4,134.25L269.886,134.25ZM272.457,134.25L272.457,133.75L272.971,133.75L272.971,134.25L272.457,134.25ZM275.029,134.25L275.029,133.75L275.543,133.75L275.543,134.25L275.029,134.25ZM277.6,134.25L277.6,133.75L278.114,133.75L278.114,134.25L277.6,134.25ZM280.171,134.25L280.171,133.75L280.686,133.75L280.686,134.25L280.171,134.25ZM282.743,134.25L282.743,133.75L283.257,133.75L283.257,134.25L282.743,134.25ZM285.314,134.25L285.314,133.75L285.829,133.75L285.829,134.25L285.314,134.25ZM287.886,134.25L287.886,133.75L288.4,133.75L288.4,134.25L287.886,134.25ZM290.457,134.25L290.457,133.75L290.971,133.75L290.971,134.25L290.457,134.25ZM293.029,134.25L293.029,133.75L293.543,133.75L293.543,134.25L293.029,134.25ZM295.6,134.25L295.6,133.75L296.114,133.75L296.114,134.25L295.6,134.25ZM298.171,134.25L298.171,133.75L298.686,133.75L298.686,134.25L298.171,134.25ZM301.25,131.652L300.75,131.652L300.75,131.13L301.25,131.13L301.25,131.652ZM301.25,129.043L300.75,129.043L300.75,128.522L301.25,128.522L301.25,129.043ZM301.25,126.435L300.75,126.435L300.75,125.913L301.25,125.913L301.25,126.435ZM301.25,123.826L300.75,123.826L300.75,123.304L301.25,123.304L301.25,123.826ZM301.25,121.217L300.75,121.217L300.75,120.696L301.25,120.696L301.25,121.217ZM301.25,118.609L300.75,118.609L300.75,118.087L301.25,118.087L301.25,118.609ZM301.25,116L300.75,116L300.75,115.478L301.25,115.478L301.25,116ZM301.25,113.391L300.75,113.391L300.75,112.87L301.25,112.87L301.25,113.391ZM301.25,110.783L300.75,110.783L300.75,110.261L301.25,110.261L301.25,110.783ZM301.25,108.174L300.75,108.174L300.75,107.652L301.25,107.652L301.25,108.174ZM301.25,105.565L300.75,105.565L300.75,105.043L301.25,105.043L301.25,105.565ZM301.25,102.957L300.75,102.957L300.75,102.435L301.25,102.435L301.25,102.957ZM301.25,100.348L300.75,100.348L300.75,99.826L301.25,99.826L301.25,100.348ZM301.25,97.739L300.75,97.739L300.75,97.217L301.25,97.217L301.25,97.739ZM301.25,95.13L300.75,95.13L300.75,94.609L301.25,94.609L301.25,95.13ZM301.25,92.522L300.75,92.522L300.75,92L301.25,92L301.25,92.522ZM301.25,89.913L300.75,89.913L300.75,89.391L301.25,89.391L301.25,89.913ZM301.25,87.304L300.75,87.304L300.75,86.783L301.25,86.783L301.25,87.304ZM301.25,84.696L300.75,84.696L300.75,84.174L301.25,84.174L301.25,84.696ZM301.25,82.087L300.75,82.087L300.75,81.565L301.25,81.565L301.25,82.087ZM301.25,79.478L300.75,79.478L300.75,78.957L301.25,78.957L301.25,79.478ZM301.25,76.87L300.75,76.87L300.75,76.348L301.25,76.348L301.25,76.87ZM301.25,74.261L300.75,74.261L300.75,74.003L301,74.25L301.25,74.003L301.25,74.261Z"/>
                        </g>
                    </g>
                    <g transform="matrix(1.2,0,0,1,-663.6,343)">
                        <circle cx="804" cy="71" r="1" style="fill:none;stroke:black;stroke-width:0.5px;stroke-linecap:square;stroke-miterlimit:1.5;stroke-dasharray:0.5,1,0,0,0,0;"/>
                    </g>
                    <g transform="matrix(1.2,0,0,1,-99.6,286)">
                        <path d="M258,132.25L257.75,131.997L257.75,131.748L258.25,131.748L258.25,131.997L258,132.25ZM258.25,129.735L257.75,129.735L257.75,129.232L258.25,129.232L258.25,129.735ZM258.25,127.219L257.75,127.219L257.75,126.716L258.25,126.716L258.25,127.219ZM258.25,124.703L257.75,124.703L257.75,124.2L258.25,124.2L258.25,124.703ZM258.25,122.187L257.75,122.187L257.75,121.684L258.25,121.684L258.25,122.187ZM258.25,119.671L257.75,119.671L257.75,119.168L258.25,119.168L258.25,119.671ZM258.25,117.155L257.75,117.155L257.75,116.652L258.25,116.652L258.25,117.155ZM258.25,114.639L257.75,114.639L257.75,114.135L258.25,114.135L258.25,114.639ZM258.25,112.122L257.75,112.122L257.75,111.619L258.25,111.619L258.25,112.122ZM258.25,109.606L257.75,109.606L257.75,109.103L258.25,109.103L258.25,109.606ZM258.25,107.09L257.75,107.09L257.75,106.587L258.25,106.587L258.25,107.09ZM258.25,104.574L257.75,104.574L257.75,104.071L258.25,104.071L258.25,104.574ZM258.25,102.058L257.75,102.058L257.75,101.555L258.25,101.555L258.25,102.058ZM258.25,99.542L257.75,99.542L257.75,99.039L258.25,99.039L258.25,99.542ZM258.25,97.026L257.75,97.026L257.75,96.523L258.25,96.523L258.25,97.026ZM258.25,94.51L257.75,94.51L257.75,94.006L258.25,94.006L258.25,94.51ZM258.25,91.994L257.75,91.994L257.75,91.49L258.25,91.49L258.25,91.994ZM258.25,89.477L257.75,89.477L257.75,88.974L258.25,88.974L258.25,89.477ZM258.25,86.961L257.75,86.961L257.75,86.458L258.25,86.458L258.25,86.961ZM258.25,84.445L257.75,84.445L257.75,83.942L258.25,83.942L258.25,84.445ZM258.25,81.929L257.75,81.929L257.75,81.426L258.25,81.426L258.25,81.929ZM258.25,79.413L257.75,79.413L257.75,78.91L258.25,78.91L258.25,79.413ZM258.25,76.897L257.75,76.897L257.75,76.394L258.25,76.394L258.25,76.897ZM258.25,74.381L257.75,74.381L257.75,73.877L258.25,73.877L258.25,74.381ZM258.25,71.864L257.75,71.864L257.75,71.361L258.25,71.361L258.25,71.864ZM258.25,69.348L257.75,69.348L257.75,68.845L258.25,68.845L258.25,69.348ZM258.25,66.832L257.75,66.832L257.75,66.329L258.25,66.329L258.25,66.832ZM258.25,64.316L257.75,64.316L257.75,63.813L258.25,63.813L258.25,64.316ZM258.25,61.8L257.75,61.8L257.75,61.297L258.25,61.297L258.25,61.8ZM258.25,59.284L257.75,59.284L257.75,58.781L258.25,58.781L258.25,59.284ZM258.25,56.768L257.75,56.768L257.75,56.265L258.25,56.265L258.25,56.768ZM258.25,54.252L257.75,54.252L257.75,54.003L258,54.25L258.25,54.003L258.25,54.252Z"/>
                    </g>
                    <g transform="matrix(7.36364,0,0,1,-2416.36,550)">
                        <g transform="matrix(0.162963,-0,-0,1,320,-210)">
                            <path d="M446.849,296.5L449.099,295L446.849,293.5" style="fill:none;stroke:black;stroke-width:1px;"/>
                            <path d="M3.151,296.5L0.901,295L3.151,293.5" style="fill:none;stroke:black;stroke-width:1px;"/>
                            <path d="M449.099,295L0.901,295" style="fill:none;stroke:black;stroke-width:1px;stroke-miterlimit:3;"/>
                        </g>
                    </g>
                    <g transform="matrix(5.4,0,0,1,-1770,545)">
                        <g transform="matrix(0.222222,-0,-0,1,316.667,-205)">
                            <path d="M6.5,3.151L5,0.901L3.5,3.151" style="fill:none;stroke:black;stroke-width:1px;"/>
                            <path d="M6.5,296.849L5,299.099L3.5,296.849" style="fill:none;stroke:black;stroke-width:1px;"/>
                            <path d="M5,0.901L5,299.099" style="fill:none;stroke:black;stroke-width:1px;stroke-miterlimit:3;"/>
                        </g>
                    </g>
                </g>
                <g id="Labels" transform="matrix(1.11111,0,0,1,-33.3333,-2.27374e-13)">
                    <g transform="matrix(1.2,0,0,1,-90.6,395)">
                        <g transform="matrix(4,0,0,4,375,20.48)">
                        </g>
                        <text x="370.2px" y="20.48px" style="font-family:'IBMPlexMono-Bold', 'IBM Plex Mono', monospace;font-weight:700;font-size:4px;">24</text>
                    </g>
                    <g transform="matrix(1.2,0,0,1,-74.4,449.5)">
                        <g transform="matrix(4,0,0,4,372.4,23)">
                        </g>
                        <text x="367.6px" y="23px" style="font-family:'IBMPlexMono-Bold', 'IBM Plex Mono', monospace;font-weight:700;font-size:4px;">36</text>
                    </g>
                    <g transform="matrix(1.2,0,0,1,-60.6,425)">
                        <g transform="matrix(4,0,0,4,375,20.48)">
                        </g>
                        <text x="370.2px" y="20.48px" style="font-family:'IBMPlexMono-Bold', 'IBM Plex Mono', monospace;font-weight:700;font-size:4px;">60</text>
                    </g>
                    <g transform="matrix(1.2,0,0,1,-136.2,360.02)">
                        <g transform="matrix(4,0,0,4,369.8,20.48)">
                        </g>
                        <text x="365px" y="20.48px" style="font-family:'IBMPlexMono-Bold', 'IBM Plex Mono', monospace;font-weight:700;font-size:4px;">78</text>
                    </g>
                    <g transform="matrix(1.2,0,0,1,-68.4,384.5)">
                        <g transform="matrix(4,0,0,4,372.4,23)">
                        </g>
                        <text x="367.6px" y="23px" style="font-family:'IBMPlexMono-Bold', 'IBM Plex Mono', monospace;font-weight:700;font-size:4px;">10</text>
                    </g>
                    <g transform="matrix(1.2,0,0,1,-44.928,389.48)">
                        <g transform="matrix(4,0,0,4,372.2,23)">
                        </g>
                        <text x="365px" y="23px" style="font-family:'IBMPlexMono-Bold', 'IBM Plex Mono', monospace;font-weight:700;font-size:4px;">r=1</text>
                    </g>
                    <g transform="matrix(1.2,0,0,1,-151.2,492.54)">
                        <g transform="matrix(4,0,0,4,368.2,17.96)">
                        </g>
                        <text x="365.8px" y="17.96px" style="font-family:'IBMPlexMono-Bold', 'IBM Plex Mono', monospace;font-weight:700;font-size:4px;">4</text>
                    </g>
                    <g transform="matrix(1.2,0,0,1,-147,447.02)">
                        <g transform="matrix(4,0,0,4,371,19.48)">
                        </g>
                        <text x="368.6px" y="19.48px" style="font-family:'IBMPlexMono-Bold', 'IBM Plex Mono', monospace;font-weight:700;font-size:4px;">4</text>
                    </g>
                    <g transform="matrix(1.2,0,0,1,-175.8,535)">
                        <g transform="matrix(4,0,0,4,371,17.96)">
                        </g>
                        <text x="368.6px" y="17.96px" style="font-family:'IBMPlexMono-Bold', 'IBM Plex Mono', monospace;font-weight:700;font-size:4px;">4</text>
                    </g>
                    <g transform="matrix(1.2,0,0,1,-198,516.5)">
                        <g transform="matrix(4,0,0,4,371,17.96)">
                        </g>
                        <text x="368.6px" y="17.96px" style="font-family:'IBMPlexMono-Bold', 'IBM Plex Mono', monospace;font-weight:700;font-size:4px;">4</text>
                    </g>
                    <g transform="matrix(1.2,0,0,1,-160.8,536.5)">
                        <g transform="matrix(4,0,0,4,376.8,17.96)">
                        </g>
                        <text x="367.2px" y="17.96px" style="font-family:'IBMPlexMono-Bold', 'IBM Plex Mono', monospace;font-weight:700;font-size:4px;">r=12</text>
                    </g>
                    <g transform="matrix(1.2,0,0,1,-188.4,500)">
                        <g transform="matrix(4,0,0,4,374.6,19.48)">
                        </g>
                        <text x="365px" y="19.48px" style="font-family:'IBMPlexMono-Bold', 'IBM Plex Mono', monospace;font-weight:700;font-size:4px;">r=12</text>
                    </g>
                    <g transform="matrix(1.2,0,0,1,-127.8,445.02)">
                        <g transform="matrix(4,0,0,4,369.8,19.48)">
                        </g>
                        <text x="365px" y="19.48px" style="font-family:'IBMPlexMono-Bold', 'IBM Plex Mono', monospace;font-weight:700;font-size:4px;">14</text>
                    </g>
                    <g transform="matrix(1.2,0,0,1,-128.4,499.5)">
                        <g transform="matrix(4,0,0,4,370.4,17.96)">
                        </g>
                        <text x="365.6px" y="17.96px" style="font-family:'IBMPlexMono-Bold', 'IBM Plex Mono', monospace;font-weight:700;font-size:4px;">14</text>
                    </g>
                    <g transform="matrix(1.2,0,0,1,-175.8,516)">
                        <g transform="matrix(4,0,0,4,372.2,19.73)">
                        </g>
                        <text x="365px" y="19.73px" style="font-family:'IBMPlexMono-Bold', 'IBM Plex Mono', monospace;font-weight:700;font-size:4px;">r=7</text>
                    </g>
                    <g transform="matrix(1.48492,-1.23744,1.48492,1.23744,-350.879,512.274)">
                        <g transform="matrix(0.404061,0.404061,-0.404061,0.404061,197.858,58.6396)">
                            <path d="M184.47,149.47C184.762,149.177 185.238,149.177 185.53,149.47C185.823,149.762 185.823,150.238 185.53,150.53C185.238,150.823 184.762,150.823 184.47,150.53C184.177,150.238 184.177,149.762 184.47,149.47Z"/>
                            <path d="M180.05,154.95C180.569,154.431 189.508,145.492 189.95,145.05C192.682,147.782 192.682,152.218 189.95,154.95C187.218,157.682 182.782,157.682 180.05,154.95Z" style="fill:none;stroke:black;stroke-width:0.5px;stroke-linecap:square;stroke-miterlimit:3;stroke-dasharray:0.5,2,0,0,0,0;"/>
                        </g>
                    </g>
                    <g transform="matrix(1.48492,-1.23744,1.48492,1.23744,-283.678,456.275)">
                        <g transform="matrix(0.404061,0.404061,-0.404061,0.404061,152.603,58.6384)">
                            <path d="M240.471,93.471C240.764,93.178 241.239,93.178 241.532,93.471C241.824,93.764 241.824,94.239 241.532,94.532C241.239,94.824 240.764,94.824 240.471,94.532C240.178,94.239 240.178,93.764 240.471,93.471Z"/>
                            <path d="M236.052,98.951C236.571,98.432 245.509,89.493 245.951,89.052C248.683,91.783 248.683,96.219 245.951,98.951C243.219,101.683 238.783,101.683 236.052,98.951Z" style="fill:none;stroke:black;stroke-width:0.5px;stroke-linecap:square;stroke-miterlimit:3;stroke-dasharray:0.5,2,0,0,0,0;"/>
                        </g>
                    </g>
                    <g transform="matrix(1.2,0,0,1,-108.6,415.77)">
                        <g transform="matrix(4,0,0,4,372.2,19.73)">
                        </g>
                        <text x="365px" y="19.73px" style="font-family:'IBMPlexMono-Bold', 'IBM Plex Mono', monospace;font-weight:700;font-size:4px;">r=7</text>
                    </g>
                    <g transform="matrix(1.2,0,0,1,-108.6,472)">
                        <g transform="matrix(4,0,0,4,378,19.48)">
                        </g>
                        <text x="368.4px" y="19.48px" style="font-family:'IBMPlexMono-Bold', 'IBM Plex Mono', monospace;font-weight:700;font-size:4px;">r=16</text>
                    </g>
                    <g transform="matrix(1.2,0,0,1,-114.6,483.48)">
                        <g transform="matrix(4,0,0,4,373.4,21)">
                        </g>
                        <text x="368.6px" y="21px" style="font-family:'IBMPlexMono-Bold', 'IBM Plex Mono', monospace;font-weight:700;font-size:4px;">29</text>
                    </g>
                    <g transform="matrix(1.2,0,0,1,-151.8,509)">
                        <g transform="matrix(4,0,0,4,375,20.48)">
                        </g>
                        <text x="370.2px" y="20.48px" style="font-family:'IBMPlexMono-Bold', 'IBM Plex Mono', monospace;font-weight:700;font-size:4px;">44</text>
                    </g>
                    <g transform="matrix(1.2,0,0,1,-153,427.52)">
                        <g transform="matrix(4,0,0,4,376,22.48)">
                        </g>
                        <text x="371.2px" y="22.48px" style="font-family:'IBMPlexMono-Bold', 'IBM Plex Mono', monospace;font-weight:700;font-size:4px;">29</text>
                    </g>
                    <g transform="matrix(1.2,0,0,1,-178.2,483)">
                        <g transform="matrix(4,0,0,4,373.4,21)">
                        </g>
                        <text x="368.6px" y="21px" style="font-family:'IBMPlexMono-Bold', 'IBM Plex Mono', monospace;font-weight:700;font-size:4px;">33</text>
                    </g>
                    <g transform="matrix(1.2,0,0,1,-169.2,449.5)">
                        <g transform="matrix(4,0,0,4,373.4,23)">
                        </g>
                        <text x="368.6px" y="23px" style="font-family:'IBMPlexMono-Bold', 'IBM Plex Mono', monospace;font-weight:700;font-size:4px;">40</text>
                    </g>
                    <g transform="matrix(1.2,0,0,1,-202.8,449.5)">
                        <g transform="matrix(4,0,0,4,373.4,23)">
                        </g>
                        <text x="368.6px" y="23px" style="font-family:'IBMPlexMono-Bold', 'IBM Plex Mono', monospace;font-weight:700;font-size:4px;">16</text>
                    </g>
                    <g transform="matrix(1.2,0,0,1,-184.2,463)">
                        <g transform="matrix(4,0,0,4,369.8,20.48)">
                        </g>
                        <text x="365px" y="20.48px" style="font-family:'IBMPlexMono-Bold', 'IBM Plex Mono', monospace;font-weight:700;font-size:4px;">16</text>
                    </g>
                    <g transform="matrix(1.2,0,0,1,-135.6,420.5)">
                        <g transform="matrix(4,0,0,4,373.4,17.96)">
                        </g>
                        <text x="368.6px" y="17.96px" style="font-family:'IBMPlexMono-Bold', 'IBM Plex Mono', monospace;font-weight:700;font-size:4px;">16</text>
                    </g>
                    <g transform="matrix(1.2,0,0,1,-154.2,407)">
                        <g transform="matrix(4,0,0,4,377,20.48)">
                        </g>
                        <text x="372.2px" y="20.48px" style="font-family:'IBMPlexMono-Bold', 'IBM Plex Mono', monospace;font-weight:700;font-size:4px;">16</text>
                    </g>
                    <g transform="matrix(1.2,0,0,1,-123.6,449.5)">
                        <g transform="matrix(4,0,0,4,375.4,23)">
                        </g>
                        <text x="370.6px" y="23px" style="font-family:'IBMPlexMono-Bold', 'IBM Plex Mono', monospace;font-weight:700;font-size:4px;">40</text>
                    </g>
                    <g transform="matrix(1.2,0,0,1,-147,477.48)">
                        <g transform="matrix(4,0,0,4,371,19.48)">
                        </g>
                        <text x="366.2px" y="19.48px" style="font-family:'IBMPlexMono-Bold', 'IBM Plex Mono', monospace;font-weight:700;font-size:4px;">21</text>
                    </g>
                    <g transform="matrix(1.2,0,0,1,-396,469)">
                        <g transform="matrix(8,0,0,8,379.4,23.96)">
                        </g>
                        <text x="365px" y="23.96px" style="font-family:'IBMPlexMono-Bold', 'IBM Plex Mono', monospace;font-weight:700;font-size:8px;">300</text>
                    </g>
                    <g transform="matrix(1.2,0,0,1,-162,603)">
                        <g transform="matrix(8,0,0,8,392.2,27)">
                        </g>
                        <text x="377.8px" y="27px" style="font-family:'IBMPlexMono-Bold', 'IBM Plex Mono', monospace;font-weight:700;font-size:8px;">450</text>
                    </g>
                </g>
            </g>
        </g>
    </g>
</svg>
