<?xml version="1.0" encoding="UTF-8" standalone="no"?>
<!DOCTYPE svg PUBLIC "-//W3C//DTD SVG 1.1//EN" "http://www.w3.org/Graphics/SVG/1.1/DTD/svg11.dtd">
<svg width="100%" height="100%" viewBox="0 0 450 300" version="1.1" xmlns="http://www.w3.org/2000/svg" xmlns:xlink="http://www.w3.org/1999/xlink" xml:space="preserve" xmlns:serif="http://www.serif.com/" style="fill-rule:evenodd;clip-rule:evenodd;stroke-miterlimit:10;">
    <g transform="matrix(1,0,0,1,-500,0)">
        <g id="Construction" transform="matrix(0.75,0,0,1,500,-340)">
            <rect x="0" y="340" width="600" height="300" style="fill:rgb(0,71,171);"/>
            <clipPath id="_clip1">
                <rect x="0" y="340" width="600" height="300"/>
            </clipPath>
            <g clip-path="url(#_clip1)">
                <g transform="matrix(1.33333,0,0,1,300,490)">
                    <g transform="matrix(1,0,0,1,-150,-150)">
                        <g id="Monogram" transform="matrix(0.385714,0,0,0.4,-81.4286,30)">
                            <g>
                                <path d="M600,217.5L600,120L641.481,160M537.778,440L537.778,450.005C537.778,466.571 551.704,480 568.884,480C568.885,480 568.887,480 568.889,480C577.14,480 585.053,476.839 590.888,471.213C596.722,465.587 600,457.956 600,450C600,444.26 600,302.5 600,302.5" style="fill:none;stroke:white;stroke-width:30.54px;stroke-linecap:round;stroke-miterlimit:3;"/>
                                <path d="M600,235L600,217.5M600,302.5L600,285" style="fill:none;stroke:white;stroke-width:30.54px;stroke-linejoin:round;stroke-miterlimit:3;"/>
                                <path d="M644.074,340C644.074,340 703.704,340 703.704,340C726.613,340 745.185,322.091 745.185,300C745.185,300 745.185,300 745.185,300C745.185,277.909 726.613,260 703.704,260C703.704,260 454.815,260 454.815,260L496.296,300M496.296,400L485.926,400C477.675,400 469.762,396.839 463.927,391.213C458.093,385.587 454.815,377.956 454.815,370C454.815,370 454.815,370 454.815,370C454.815,362.043 458.093,354.413 463.927,348.787C469.762,343.161 477.675,340 485.926,340C491.878,340 555.926,340 555.926,340" style="fill:none;stroke:white;stroke-width:30.54px;stroke-linecap:round;stroke-miterlimit:3;"/>
                                <path d="M625.926,340L644.074,340M555.926,340L574.074,340" style="fill:none;stroke:white;stroke-width:30.54px;stroke-linejoin:round;stroke-miterlimit:3;"/>
                            </g>
                        </g>
                        <g id="Flower" transform="matrix(0,0.555556,-0.666667,5.55112e-17,495.667,-182.333)">
                            <g transform="matrix(-1.2,1.22465e-16,-1.46958e-16,-1,912,461.5)">
                                <path d="M380,60C380,60 382.656,55.131 385.082,50.683C387.524,46.206 387.524,40.794 385.082,36.317C382.656,31.869 380,27 380,27C380,27 377.344,31.869 374.918,36.317C372.476,40.794 372.476,46.206 374.918,50.683C377.344,55.131 380,60 380,60Z" style="fill:white;"/>
                            </g>
                            <g transform="matrix(1.45937e-16,-1,1.2,-4.49191e-17,382.2,780)">
                                <path d="M380,60C380,60 382.656,55.131 385.082,50.683C387.524,46.206 387.524,40.794 385.082,36.317C382.656,31.869 380,27 380,27C380,27 377.344,31.869 374.918,36.317C372.476,40.794 372.476,46.206 374.918,50.683C377.344,55.131 380,60 380,60Z" style="fill:white;"/>
                            </g>
                            <g transform="matrix(1.2,-2.28848e-17,2.74617e-17,1,4.60454e-12,338.5)">
                                <path d="M380,60C380,60 382.656,55.131 385.082,50.683C387.524,46.206 387.524,40.794 385.082,36.317C382.656,31.869 380,27 380,27C380,27 377.344,31.869 374.918,36.317C372.476,40.794 372.476,46.206 374.918,50.683C377.344,55.131 380,60 380,60Z" style="fill:white;"/>
                            </g>
                            <g transform="matrix(1.02044e-18,1,-1.2,1.67384e-16,529.8,20)">
                                <path d="M380,60C380,60 382.656,55.131 385.082,50.683C387.524,46.206 387.524,40.794 385.082,36.317C382.656,31.869 380,27 380,27C380,27 377.344,31.869 374.918,36.317C372.476,40.794 372.476,46.206 374.918,50.683C377.344,55.131 380,60 380,60Z" style="fill:white;"/>
                            </g>
                        </g>
                    </g>
                </g>
                <g id="Tint" transform="matrix(1.2,0,0,1,0,340)">
                    <rect x="0" y="0" width="500" height="300" style="fill:white;fill-opacity:0.6;"/>
                </g>
                <g id="Lines" transform="matrix(1.11111,0,0,1,66.6667,-2.27374e-13)">
                    <g transform="matrix(1.39485,-1.28979e-16,-1.38182e-16,0.65,-198.443,370.5)">
                        <g transform="matrix(0.86031,1.7071e-16,1.52409e-16,1.53846,99.2529,-46.9231)">
                            <path d="M282.576,70.25L281.451,71L282.576,71.75" style="fill:none;stroke:black;stroke-width:0.5px;"/>
                            <path d="M301.424,70.25L302.549,71L301.424,71.75" style="fill:none;stroke:black;stroke-width:0.5px;"/>
                            <path d="M281.451,71L302.549,71" style="fill:none;stroke:black;stroke-width:0.5px;stroke-miterlimit:3;"/>
                        </g>
                    </g>
                    <g transform="matrix(1.39485,1.47595e-14,9.82746e-15,0.46129,-275.243,482.935)">
                        <g transform="matrix(0.86031,-2.75265e-14,-1.52736e-14,2.16783,154.313,-309.86)">
                            <path d="M225.75,167.576L225,166.451L224.25,167.576" style="fill:none;stroke:black;stroke-width:0.5px;"/>
                            <path d="M225.75,208.424L225,209.549L224.25,208.424" style="fill:none;stroke:black;stroke-width:0.5px;"/>
                            <path d="M225,166.451C225,170.797 225,205.203 225,209.549" style="fill:none;stroke:black;stroke-width:0.5px;stroke-miterlimit:3;"/>
                        </g>
                    </g>
                    <g transform="matrix(1.39485,3.28204e-14,2.18729e-14,0.220161,-275.243,473.992)">
                        <g transform="matrix(0.86031,-1.2825e-13,-7.1226e-14,4.54212,154.313,-608.608)">
                            <path d="M225.754,145.576L225.005,144.451L224.254,145.576" style="fill:none;stroke:black;stroke-width:0.5px;"/>
                            <path d="M225.75,164.424L225,165.549L224.25,164.424" style="fill:none;stroke:black;stroke-width:0.5px;"/>
                            <path d="M225.005,144.451C225.004,147.293 225.001,162.707 225,165.549" style="fill:none;stroke:black;stroke-width:0.5px;stroke-miterlimit:3;"/>
                        </g>
                    </g>
                    <g transform="matrix(1.39485,2.1368e-14,1.60541e-14,0.314516,-275.243,418.274)">
                        <g transform="matrix(0.86031,-5.84489e-14,-3.65945e-14,3.17949,154.313,-248.872)">
                            <path d="M225.75,95.576L225,94.451L224.25,95.576" style="fill:none;stroke:black;stroke-width:0.5px;"/>
                            <path d="M225.75,122.424L225,123.549L224.25,122.424" style="fill:none;stroke:black;stroke-width:0.5px;"/>
                            <path d="M225,94.451C225,97.902 225,120.098 225,123.549" style="fill:none;stroke:black;stroke-width:0.5px;stroke-miterlimit:3;"/>
                        </g>
                    </g>
                    <g transform="matrix(1.39485,3.79037e-14,2.47456e-14,0.167742,-275.248,409.613)">
                        <g transform="matrix(0.86031,-1.944e-13,-1.05762e-13,5.96154,154.317,-415)">
                            <path d="M225.745,79.576L224.995,78.451L224.245,79.576" style="fill:none;stroke:black;stroke-width:0.5px;"/>
                            <path d="M225.745,92.424L224.995,93.549L224.245,92.424" style="fill:none;stroke:black;stroke-width:0.5px;"/>
                            <path d="M224.995,78.451L224.995,93.549" style="fill:none;stroke:black;stroke-width:0.5px;stroke-miterlimit:3;"/>
                        </g>
                    </g>
                    <g transform="matrix(1.39485,3.6522e-14,2.37799e-14,0.18871,-275.243,478.565)">
                        <g transform="matrix(0.86031,-1.66501e-13,-9.03419e-14,5.29915,154.313,-734.274)">
                            <path d="M226.573,133.25L225.448,134L226.573,134.75" style="fill:none;stroke:black;stroke-width:0.5px;"/>
                            <path d="M263.424,133.25L264.549,134L263.424,134.75" style="fill:none;stroke:black;stroke-width:0.5px;"/>
                            <path d="M225.448,134C229.555,134 260.442,134 264.549,134" style="fill:none;stroke:black;stroke-width:0.5px;stroke-miterlimit:3;"/>
                        </g>
                    </g>
                    <g transform="matrix(1.39485,3.6522e-14,2.37799e-14,0.18871,-323.248,478.565)">
                        <g transform="matrix(0.86031,-1.66501e-13,-9.03419e-14,5.29915,188.729,-734.274)">
                            <path d="M186.569,133.25L185.444,134L186.569,134.75" style="fill:none;stroke:black;stroke-width:0.5px;"/>
                            <path d="M223.42,133.25L224.545,134L223.42,134.75" style="fill:none;stroke:black;stroke-width:0.5px;"/>
                            <path d="M185.444,134C189.551,134 220.437,134 224.545,134" style="fill:none;stroke:black;stroke-width:0.5px;stroke-miterlimit:3;"/>
                        </g>
                    </g>
                    <g transform="matrix(1.39485,3.6522e-14,2.37799e-14,0.18871,-323.248,478.565)">
                        <g transform="matrix(0.86031,-1.66501e-13,-9.03419e-14,5.29915,188.729,-734.274)">
                            <path d="M170.576,133.25L169.451,134L170.576,134.75" style="fill:none;stroke:black;stroke-width:0.5px;"/>
                            <path d="M183.413,133.25L184.538,134L183.413,134.75" style="fill:none;stroke:black;stroke-width:0.5px;"/>
                            <path d="M169.451,134C171.758,134 182.23,134 184.538,134" style="fill:none;stroke:black;stroke-width:0.5px;stroke-miterlimit:3;"/>
                        </g>
                    </g>
                    <g transform="matrix(1.39485,-1.28979e-16,-1.38182e-16,0.65,-275.243,455.5)">
                        <g transform="matrix(0.86031,1.7071e-16,1.52409e-16,1.53846,154.313,-177.692)">
                            <path d="M201.75,207.576L201,206.451L200.25,207.576" style="fill:none;stroke:black;stroke-width:0.5px;"/>
                            <path d="M201.75,208.424L201,209.549L200.25,208.424" style="fill:none;stroke:black;stroke-width:0.5px;"/>
                            <path d="M201,206.451L201,209.549" style="fill:none;stroke:black;stroke-width:0.5px;stroke-miterlimit:3;"/>
                        </g>
                    </g>
                    <g transform="matrix(-1.01455e-16,1.16237,-0.78,-2.34555e-16,270.6,149.631)">
                        <g transform="matrix(-3.10446e-16,-1.53846,0.86031,-1.11901e-16,163.776,423.846)">
                            <path d="M183.424,190.75L184.549,190L183.424,189.25" style="fill:none;stroke:black;stroke-width:0.5px;"/>
                            <path d="M182.576,190.75L181.451,190L182.576,189.25" style="fill:none;stroke:black;stroke-width:0.5px;"/>
                            <path d="M184.549,190L181.451,190" style="fill:none;stroke:black;stroke-width:0.5px;stroke-miterlimit:3;"/>
                        </g>
                    </g>
                    <g transform="matrix(2.37408e-16,1.16237,-0.884,-3.98769e-16,285.72,149.631)">
                        <g transform="matrix(-4.65699e-16,-1.35747,0.86031,2.31046e-16,163.776,391.086)">
                            <path d="M213.424,166.75L214.549,166L213.424,165.25" style="fill:none;stroke:black;stroke-width:0.5px;"/>
                            <path d="M182.576,166.75L181.451,166L182.576,165.25" style="fill:none;stroke:black;stroke-width:0.5px;"/>
                            <path d="M214.549,166L181.451,166" style="fill:none;stroke:black;stroke-width:0.5px;stroke-miterlimit:3;"/>
                        </g>
                    </g>
                    <g transform="matrix(1.39485,-1.28979e-16,-1.38182e-16,0.65,-275.243,451.5)">
                        <g transform="matrix(0.86031,1.7071e-16,1.52409e-16,1.53846,154.313,-171.538)">
                            <path d="M219.25,143L219.25,145" style="fill:none;stroke:black;stroke-width:0.5px;"/>
                            <path d="M230.75,143L230.75,145" style="fill:none;stroke:black;stroke-width:0.5px;"/>
                            <path d="M219.25,144C220.81,144 229.19,144 230.75,144" style="fill:none;stroke:black;stroke-width:0.5px;stroke-miterlimit:3;"/>
                        </g>
                    </g>
                    <g transform="matrix(1.39485,-1.28979e-16,-1.38182e-16,0.65,-275.243,431.5)">
                        <g transform="matrix(0.86031,1.7071e-16,1.52409e-16,1.53846,154.313,-140.769)">
                            <path d="M219.25,123L219.25,125" style="fill:none;stroke:black;stroke-width:0.5px;"/>
                            <path d="M230.75,123L230.75,125" style="fill:none;stroke:black;stroke-width:0.5px;"/>
                            <path d="M219.25,124C220.81,124 229.19,124 230.75,124" style="fill:none;stroke:black;stroke-width:0.5px;stroke-miterlimit:3;"/>
                        </g>
                    </g>
                    <g transform="matrix(2.40184e-16,1.16237,-0.78,-7.53504e-17,249,69.6312)">
                        <g transform="matrix(-9.97304e-17,-1.53846,0.86031,2.64914e-16,232.601,396.154)">
                            <path d="M226,128.25L224,128.25" style="fill:none;stroke:black;stroke-width:0.5px;"/>
                            <path d="M226,139.75L224,139.75" style="fill:none;stroke:black;stroke-width:0.5px;"/>
                            <path d="M225,128.25C225,129.81 225,138.19 225,139.75" style="fill:none;stroke:black;stroke-width:0.5px;stroke-miterlimit:3;"/>
                        </g>
                    </g>
                    <g transform="matrix(1.39485,-1.28979e-16,-1.38182e-16,0.65,-275.243,473.5)">
                        <g transform="matrix(0.86031,1.7071e-16,1.52409e-16,1.53846,154.313,-205.385)">
                            <path d="M219.25,165L219.25,167" style="fill:none;stroke:black;stroke-width:0.5px;"/>
                            <path d="M230.75,165L230.75,167" style="fill:none;stroke:black;stroke-width:0.5px;"/>
                            <path d="M219.25,166C220.81,166 229.19,166 230.75,166" style="fill:none;stroke:black;stroke-width:0.5px;stroke-miterlimit:3;"/>
                        </g>
                    </g>
                    <g transform="matrix(2.40184e-16,1.16237,-0.78,-7.53504e-17,261,101.631)">
                        <g transform="matrix(-9.97304e-17,-1.53846,0.86031,2.64914e-16,205.071,411.538)">
                            <path d="M236,160.25L234,160.25" style="fill:none;stroke:black;stroke-width:0.5px;"/>
                            <path d="M236,171.75L234,171.75" style="fill:none;stroke:black;stroke-width:0.5px;"/>
                            <path d="M235,160.25C235,161.81 235,170.19 235,171.75" style="fill:none;stroke:black;stroke-width:0.5px;stroke-miterlimit:3;"/>
                        </g>
                    </g>
                    <g transform="matrix(2.40184e-16,1.16237,-0.78,-7.53504e-17,237,101.631)">
                        <g transform="matrix(-9.97304e-17,-1.53846,0.86031,2.64914e-16,205.071,380.769)">
                            <path d="M216,160.25L214,160.25" style="fill:none;stroke:black;stroke-width:0.5px;"/>
                            <path d="M216,171.75L214,171.75" style="fill:none;stroke:black;stroke-width:0.5px;"/>
                            <path d="M215,160.25C215,161.81 215,170.19 215,171.75" style="fill:none;stroke:black;stroke-width:0.5px;stroke-miterlimit:3;"/>
                        </g>
                    </g>
                    <g transform="matrix(1.61697,-4.18967e-13,3.25362e-13,0.65,-340.516,473.5)">
                        <g transform="matrix(0.742129,4.7835e-13,-3.09564e-13,1.53846,173.482,-205.385)">
                            <path d="M236.576,165.25L235.451,166L236.576,166.75" style="fill:none;stroke:black;stroke-width:0.5px;"/>
                            <path d="M263.424,165.25L264.549,166L263.424,166.75" style="fill:none;stroke:black;stroke-width:0.5px;"/>
                            <path d="M235.451,166L264.549,166" style="fill:none;stroke:black;stroke-width:0.5px;stroke-miterlimit:3;"/>
                        </g>
                    </g>
                    <g transform="matrix(1.76291e-16,0.475516,-0.78,-1.38778e-18,339,244.349)">
                        <g transform="matrix(-4.48996e-18,-1.53846,2.10298,4.75303e-16,201.152,511.538)">
                            <path d="M292.75,68.076L292,66.951L291.25,68.076" style="fill:none;stroke:black;stroke-width:0.5px;"/>
                            <path d="M292.75,73.924L292,75.049L291.25,73.924" style="fill:none;stroke:black;stroke-width:0.5px;"/>
                            <path d="M292,66.951L292,75.049" style="fill:none;stroke:black;stroke-width:0.5px;stroke-miterlimit:3;"/>
                        </g>
                    </g>
                    <g transform="matrix(-1.8,1.83697e-16,-2.20436e-16,-1.5,562.8,837)">
                        <g transform="matrix(-0.666667,-8.16431e-17,8.16431e-17,-0.666667,346,331.333)">
                            <path d="M201,206.75C200.586,206.75 200.25,206.414 200.25,206C200.25,205.586 200.586,205.25 201,205.25C201.414,205.25 201.75,205.586 201.75,206C201.75,206.414 201.414,206.75 201,206.75Z"/>
                            <path d="M207,206L195,206C195,202.689 197.689,200 201,200C204.311,200 207,202.689 207,206Z" style="fill:none;stroke:black;stroke-width:0.5px;stroke-linecap:square;stroke-miterlimit:3;stroke-dasharray:0.5,2,0,0,0,0;"/>
                        </g>
                    </g>
                    <g transform="matrix(-3.30655e-16,-1.5,1.8,-2.75546e-16,-187.201,847.999)">
                        <g transform="matrix(-1.22465e-16,0.666667,-0.666667,-1.22465e-16,338.666,70.6675)">
                            <path d="M184.249,189.999C184.249,189.585 184.585,189.249 184.999,189.249C185.413,189.249 185.749,189.585 185.749,189.999C185.749,190.413 185.413,190.749 184.999,190.749C184.585,190.749 184.249,190.413 184.249,189.999Z"/>
                            <path d="M184.999,195.999L184.999,183.999C188.31,183.999 190.999,186.687 190.999,189.999C190.999,193.31 188.31,195.999 184.999,195.999Z" style="fill:none;stroke:black;stroke-width:0.5px;stroke-linecap:square;stroke-miterlimit:3;stroke-dasharray:0.5,2,0,0,0,0;"/>
                        </g>
                    </g>
                    <g transform="matrix(1.27279,-1.06066,1.27279,1.06066,-354.754,509.089)">
                        <g transform="matrix(0.471405,0.471405,-0.471405,0.471405,195.5,36.0807)">
                            <path d="M184.47,149.467C184.762,149.174 185.237,149.174 185.53,149.467C185.823,149.76 185.823,150.235 185.53,150.528C185.237,150.821 184.762,150.821 184.47,150.528C184.177,150.235 184.177,149.76 184.47,149.467Z"/>
                            <path d="M180.757,154.24C181.202,153.795 188.864,146.134 189.242,145.755C191.584,148.096 191.584,151.899 189.242,154.24C186.901,156.582 183.099,156.582 180.757,154.24Z" style="fill:none;stroke:black;stroke-width:0.5px;stroke-linecap:square;stroke-miterlimit:3;stroke-dasharray:0.5,2,0,0,0,0;"/>
                        </g>
                    </g>
                    <g transform="matrix(3.6,-7.34788e-16,8.81746e-16,3,-567.6,-32)">
                        <g transform="matrix(0.333333,8.16431e-17,-8.16431e-17,0.333333,141,124)">
                            <circle cx="213" cy="210" r="0.75"/>
                            <path d="M201,210L225,210C225,216.623 219.623,222 213,222C206.377,222 201,216.623 201,210Z" style="fill:none;stroke:black;stroke-width:0.5px;stroke-linecap:square;stroke-miterlimit:3;stroke-dasharray:0.5,2,0,0,0,0;"/>
                        </g>
                    </g>
                    <g transform="matrix(1.10218e-15,3,-3.6,9.18485e-16,855.6,-118)">
                        <g transform="matrix(1.02054e-16,-0.333333,0.333333,1.02054e-16,152.667,254.333)">
                            <path d="M181.75,178C181.75,178.414 181.414,178.75 181,178.75C180.586,178.75 180.25,178.414 180.25,178C180.25,177.586 180.586,177.25 181,177.25C181.414,177.25 181.75,177.586 181.75,178Z"/>
                            <path d="M181,166L181,190C174.377,190 169,184.623 169,178C169,171.377 174.377,166 181,166Z" style="fill:none;stroke:black;stroke-width:0.5px;stroke-linecap:square;stroke-miterlimit:3;stroke-dasharray:0.5,2,0,0,0,0;"/>
                        </g>
                    </g>
                    <g transform="matrix(-8.81616e-16,-3.99941,4.79929,-7.3468e-16,-673.06,1337.87)">
                        <g transform="matrix(-4.5931e-17,0.250037,-0.250037,-4.5931e-17,249.505,127.74)">
                            <path d="M264.252,149.998C264.252,149.584 264.588,149.248 265.002,149.248C265.416,149.248 265.752,149.584 265.752,149.998C265.752,150.412 265.416,150.748 265.002,150.748C264.588,150.748 264.252,150.412 264.252,149.998Z"/>
                            <path d="M265.002,165.995L265.002,134C273.832,134 281,141.168 281,149.998C281,158.827 273.832,165.995 265.002,165.995Z" style="fill:none;stroke:black;stroke-width:0.5px;stroke-linecap:square;stroke-miterlimit:3;stroke-dasharray:0.5,2,0,0,0,0;"/>
                        </g>
                    </g>
                    <g transform="matrix(1.03471e-12,0.6,-0.609231,-1.45912e-12,235.385,309)">
                        <path d="M328.75,53.485L328.75,53.977L327.917,53.977L327.917,53.49L328.75,53.485ZM327.917,54.962L328.75,54.962L328.75,55.947L327.917,55.947L327.917,54.962ZM327.917,56.932L328.75,56.932L328.75,57.917L327.917,57.917L327.917,56.932ZM327.917,58.902L328.75,58.902L328.75,59.886L327.917,59.886L327.917,58.902ZM327.917,60.871L328.75,60.871L328.75,61.364L327.917,61.358L327.917,60.871Z"/>
                    </g>
                    <g transform="matrix(1.03471e-12,0.6,-0.609231,-1.45912e-12,254.585,309)">
                        <path d="M328.75,53.485L328.75,53.977L327.917,53.977L327.917,53.49L328.75,53.485ZM327.917,54.962L328.75,54.962L328.75,55.947L327.917,55.947L327.917,54.962ZM327.917,56.932L328.75,56.932L328.75,57.917L327.917,57.917L327.917,56.932ZM327.917,58.902L328.75,58.902L328.75,59.886L327.917,59.886L327.917,58.902ZM327.917,60.871L328.75,60.871L328.75,61.364L327.917,61.358L327.917,60.871Z"/>
                    </g>
                    <g transform="matrix(-0.72,-8.62207e-13,3.50189e-12,-0.507692,446.4,511.154)">
                        <path d="M328.325,60.871L328.743,60.872L328.742,61.359L328.325,60.871ZM328.325,60.871L327.909,61.358L327.909,60.871L328.325,60.871ZM328.333,52.992L328.75,53.491L328.75,53.978L327.916,53.977L327.917,53.49L328.333,52.992ZM327.915,54.962L328.749,54.963L328.748,55.948L327.914,55.946L327.915,54.962ZM327.913,56.931L328.747,56.932L328.746,57.917L327.912,57.916L327.913,56.931ZM327.911,58.901L328.745,58.902L328.744,59.887L327.91,59.886L327.911,58.901Z"/>
                    </g>
                    <g transform="matrix(-0.72,-8.62207e-13,3.50189e-12,-0.507692,446.4,495.154)">
                        <path d="M328.349,60.871L328.765,60.87L328.766,61.357L328.349,60.871ZM328.349,60.871L327.932,61.359L327.931,60.872L328.349,60.871ZM328.333,52.992L328.75,53.489L328.751,53.976L327.918,53.978L327.917,53.491L328.333,52.992ZM327.92,54.963L328.753,54.961L328.755,55.946L327.922,55.948L327.92,54.963ZM327.924,56.933L328.757,56.931L328.759,57.916L327.925,57.918L327.924,56.933ZM327.927,58.903L328.761,58.9L328.763,59.885L327.929,59.888L327.927,58.903Z"/>
                    </g>
                    <g transform="matrix(0.431998,0.00545261,0.0018455,0.101538,-13.4666,462.914)">
                        <path d="M405.798,89.85L406.503,87.377L406.491,89.977L405.102,90.051L405.113,87.451L405.798,89.85ZM405.011,111.066L406.401,110.992L406.378,116.246L404.989,116.32L405.011,111.066ZM404.898,137.335L406.287,137.261L406.265,142.515L404.876,142.589L404.898,137.335ZM404.785,163.603L406.174,163.53L406.151,168.783L404.762,168.857L404.785,163.603ZM404.672,189.872L406.061,189.799L406.038,195.052L404.649,195.126L404.672,189.872ZM404.558,216.141L405.947,216.067L405.925,221.321L404.536,221.395L404.558,216.141ZM404.445,242.41L405.834,242.336L405.823,244.936L405.118,247.463L404.434,245.009L404.445,242.41Z"/>
                    </g>
                    <g transform="matrix(0.431998,0.00545261,0.0018455,0.101538,-13.4666,462.914)">
                        <path d="M361.336,92.237L361.85,88.025L362.815,91.446L361.818,94.982L361.048,92.253L360.642,92.274L360.663,87.349L361.336,92.237ZM405.118,247.463L404.423,247.5L404.429,246.057L403.659,243.328L404.657,239.792L405.622,243.214L405.118,247.463ZM364.742,105.35L365.74,101.814L367.68,108.694L366.683,112.229L364.742,105.35ZM369.607,122.597L370.604,119.062L372.545,125.941L371.547,129.477L369.607,122.597ZM374.472,139.844L375.469,136.309L377.409,143.188L376.412,146.724L374.472,139.844ZM379.336,157.092L380.334,153.556L382.274,160.436L381.277,163.971L379.336,157.092ZM384.201,174.339L385.198,170.803L387.138,177.683L386.141,181.218L384.201,174.339ZM389.066,191.586L390.063,188.051L392.003,194.93L391.006,198.465L389.066,191.586ZM393.93,208.834L394.927,205.298L396.868,212.178L395.871,215.713L393.93,208.834ZM398.795,226.081L399.792,222.545L401.732,229.425L400.735,232.96L398.795,226.081Z"/>
                    </g>
                    <g transform="matrix(0.431998,0.00545261,0.0018455,0.101538,51.3306,408.917)">
                        <path d="M366.284,229.828L366.313,224.902L367.047,224.863L367.026,229.788L366.284,229.828ZM372.956,229.47L372.978,224.544L374.46,224.464L374.439,229.39L372.956,229.47ZM380.37,229.071L380.391,224.146L381.874,224.066L381.853,228.992L380.37,229.071ZM387.783,228.673L387.805,223.748L389.287,223.668L389.266,228.594L387.783,228.673ZM395.197,228.275L395.218,223.35L396.701,223.27L396.68,228.196L395.197,228.275ZM402.611,227.877L402.632,222.952L404.114,222.872L404.093,227.797L402.611,227.877ZM410.024,227.479L410.045,222.554L410.779,222.514L410.765,227.439L410.024,227.479Z"/>
                    </g>
                    <g transform="matrix(0.431998,0.00545261,0.0018455,0.101538,51.3306,408.917)">
                        <path d="M366.997,72.213L367.511,68.001L368.476,71.423L367.479,74.958L366.709,72.228L366.302,72.25L366.323,67.325L366.997,72.213ZM410.765,227.439L410.071,227.476L410.077,226.034L409.307,223.304L410.305,219.769L411.269,223.191L410.765,227.439ZM370.402,85.325L371.399,81.79L373.339,88.67L372.342,92.205L370.402,85.325ZM375.265,102.572L376.262,99.037L378.202,105.917L377.205,109.453L375.265,102.572ZM380.128,119.82L381.126,116.285L383.066,123.165L382.068,126.7L380.128,119.82ZM384.991,137.067L385.989,133.532L387.929,140.412L386.931,143.947L384.991,137.067ZM389.855,154.314L390.852,150.779L392.792,157.659L391.794,161.194L389.855,154.314ZM394.718,171.562L395.715,168.027L397.655,174.907L396.658,178.442L394.718,171.562ZM399.581,188.809L400.578,185.274L402.518,192.154L401.521,195.689L399.581,188.809ZM404.444,206.057L405.441,202.522L407.381,209.402L406.384,212.937L404.444,206.057Z"/>
                    </g>
                    <g transform="matrix(1.2,0,0,0.663158,-60,363.916)">
                        <g transform="matrix(1,-0,-0,1.50794,3.41061e-12,-36.0635)">
                            <path d="M303.625,71C303.625,70.793 303.793,70.625 304,70.625C304.207,70.625 304.375,70.793 304.375,71C304.375,71.207 304.207,71.375 304,71.375C303.793,71.375 303.625,71.207 303.625,71Z"/>
                            <path d="M303.75,133.75L303.75,133.748L304.25,133.748L304.25,133.997L304,134.25L303.74,134.25L303.74,133.75L303.75,133.75ZM265,134.25L265.003,133.75L265.26,133.75L265.26,134.25L265,134.25ZM267.34,134.25L267.34,133.75L267.86,133.75L267.86,134.25L267.34,134.25ZM269.94,134.25L269.94,133.75L270.46,133.75L270.46,134.25L269.94,134.25ZM272.54,134.25L272.54,133.75L273.06,133.75L273.06,134.25L272.54,134.25ZM275.14,134.25L275.14,133.75L275.66,133.75L275.66,134.25L275.14,134.25ZM277.74,134.25L277.74,133.75L278.26,133.75L278.26,134.25L277.74,134.25ZM280.34,134.25L280.34,133.75L280.86,133.75L280.86,134.25L280.34,134.25ZM282.94,134.25L282.94,133.75L283.46,133.75L283.46,134.25L282.94,134.25ZM285.54,134.25L285.54,133.75L286.06,133.75L286.06,134.25L285.54,134.25ZM288.14,134.25L288.14,133.75L288.66,133.75L288.66,134.25L288.14,134.25ZM290.74,134.25L290.74,133.75L291.26,133.75L291.26,134.25L290.74,134.25ZM293.34,134.25L293.34,133.75L293.86,133.75L293.86,134.25L293.34,134.25ZM295.94,134.25L295.94,133.75L296.46,133.75L296.46,134.25L295.94,134.25ZM298.54,134.25L298.54,133.75L299.06,133.75L299.06,134.25L298.54,134.25ZM301.14,134.25L301.14,133.75L301.66,133.75L301.66,134.25L301.14,134.25ZM304.25,131.732L303.75,131.732L303.75,131.228L304.25,131.228L304.25,131.732ZM304.25,129.212L303.75,129.212L303.75,128.708L304.25,128.708L304.25,129.212ZM304.25,126.692L303.75,126.692L303.75,126.188L304.25,126.188L304.25,126.692ZM304.25,124.172L303.75,124.172L303.75,123.668L304.25,123.668L304.25,124.172ZM304.25,121.652L303.75,121.652L303.75,121.148L304.25,121.148L304.25,121.652ZM304.25,119.132L303.75,119.132L303.75,118.628L304.25,118.628L304.25,119.132ZM304.25,116.612L303.75,116.612L303.75,116.108L304.25,116.108L304.25,116.612ZM304.25,114.092L303.75,114.092L303.75,113.588L304.25,113.588L304.25,114.092ZM304.25,111.572L303.75,111.572L303.75,111.068L304.25,111.068L304.25,111.572ZM304.25,109.052L303.75,109.052L303.75,108.548L304.25,108.548L304.25,109.052ZM304.25,106.532L303.75,106.532L303.75,106.028L304.25,106.028L304.25,106.532ZM304.25,104.012L303.75,104.012L303.75,103.508L304.25,103.508L304.25,104.012ZM304.25,101.492L303.75,101.492L303.75,100.988L304.25,100.988L304.25,101.492ZM304.25,98.972L303.75,98.972L303.75,98.468L304.25,98.468L304.25,98.972ZM304.25,96.452L303.75,96.452L303.75,95.948L304.25,95.948L304.25,96.452ZM304.25,93.932L303.75,93.932L303.75,93.428L304.25,93.428L304.25,93.932ZM304.25,91.412L303.75,91.412L303.75,90.908L304.25,90.908L304.25,91.412ZM304.25,88.892L303.75,88.892L303.75,88.388L304.25,88.388L304.25,88.892ZM304.25,86.372L303.75,86.372L303.75,85.868L304.25,85.868L304.25,86.372ZM304.25,83.852L303.75,83.852L303.75,83.348L304.25,83.348L304.25,83.852ZM304.25,81.332L303.75,81.332L303.75,80.828L304.25,80.828L304.25,81.332ZM304.25,78.812L303.75,78.812L303.75,78.308L304.25,78.308L304.25,78.812ZM304.25,76.292L303.75,76.292L303.75,75.788L304.25,75.788L304.25,76.292ZM304.25,73.772L303.75,73.772L303.75,73.268L304.25,73.268L304.25,73.772ZM304.25,71.252L303.75,71.252L303.75,71.003L304,71.25L304.25,71.003L304.25,71.252Z"/>
                        </g>
                    </g>
                    <g transform="matrix(1.2,0,0,1,-660,340)">
                        <circle cx="804" cy="71" r="1" style="fill:none;stroke:black;stroke-width:0.5px;stroke-linecap:square;stroke-miterlimit:1.5;stroke-dasharray:0.5,1,0,0,0,0;"/>
                    </g>
                    <g transform="matrix(1.2,0,0,1,-99.6,286)">
                        <path d="M258,132.25L257.75,131.997L257.75,131.748L258.25,131.748L258.25,131.997L258,132.25ZM258.25,129.735L257.75,129.735L257.75,129.232L258.25,129.232L258.25,129.735ZM258.25,127.219L257.75,127.219L257.75,126.716L258.25,126.716L258.25,127.219ZM258.25,124.703L257.75,124.703L257.75,124.2L258.25,124.2L258.25,124.703ZM258.25,122.187L257.75,122.187L257.75,121.684L258.25,121.684L258.25,122.187ZM258.25,119.671L257.75,119.671L257.75,119.168L258.25,119.168L258.25,119.671ZM258.25,117.155L257.75,117.155L257.75,116.652L258.25,116.652L258.25,117.155ZM258.25,114.639L257.75,114.639L257.75,114.135L258.25,114.135L258.25,114.639ZM258.25,112.122L257.75,112.122L257.75,111.619L258.25,111.619L258.25,112.122ZM258.25,109.606L257.75,109.606L257.75,109.103L258.25,109.103L258.25,109.606ZM258.25,107.09L257.75,107.09L257.75,106.587L258.25,106.587L258.25,107.09ZM258.25,104.574L257.75,104.574L257.75,104.071L258.25,104.071L258.25,104.574ZM258.25,102.058L257.75,102.058L257.75,101.555L258.25,101.555L258.25,102.058ZM258.25,99.542L257.75,99.542L257.75,99.039L258.25,99.039L258.25,99.542ZM258.25,97.026L257.75,97.026L257.75,96.523L258.25,96.523L258.25,97.026ZM258.25,94.51L257.75,94.51L257.75,94.006L258.25,94.006L258.25,94.51ZM258.25,91.994L257.75,91.994L257.75,91.49L258.25,91.49L258.25,91.994ZM258.25,89.477L257.75,89.477L257.75,88.974L258.25,88.974L258.25,89.477ZM258.25,86.961L257.75,86.961L257.75,86.458L258.25,86.458L258.25,86.961ZM258.25,84.445L257.75,84.445L257.75,83.942L258.25,83.942L258.25,84.445ZM258.25,81.929L257.75,81.929L257.75,81.426L258.25,81.426L258.25,81.929ZM258.25,79.413L257.75,79.413L257.75,78.91L258.25,78.91L258.25,79.413ZM258.25,76.897L257.75,76.897L257.75,76.394L258.25,76.394L258.25,76.897ZM258.25,74.381L257.75,74.381L257.75,73.877L258.25,73.877L258.25,74.381ZM258.25,71.864L257.75,71.864L257.75,71.361L258.25,71.361L258.25,71.864ZM258.25,69.348L257.75,69.348L257.75,68.845L258.25,68.845L258.25,69.348ZM258.25,66.832L257.75,66.832L257.75,66.329L258.25,66.329L258.25,66.832ZM258.25,64.316L257.75,64.316L257.75,63.813L258.25,63.813L258.25,64.316ZM258.25,61.8L257.75,61.8L257.75,61.297L258.25,61.297L258.25,61.8ZM258.25,59.284L257.75,59.284L257.75,58.781L258.25,58.781L258.25,59.284ZM258.25,56.768L257.75,56.768L257.75,56.265L258.25,56.265L258.25,56.768ZM258.25,54.252L257.75,54.252L257.75,54.003L258,54.25L258.25,54.003L258.25,54.252Z"/>
                    </g>
                    <g transform="matrix(7.36364,0,0,1,-2416.36,550)">
                        <g transform="matrix(0.162963,-0,-0,1,320,-210)">
                            <path d="M446.849,296.5L449.099,295L446.849,293.5" style="fill:none;stroke:black;stroke-width:1px;"/>
                            <path d="M3.151,296.5L0.901,295L3.151,293.5" style="fill:none;stroke:black;stroke-width:1px;"/>
                            <path d="M449.099,295L0.901,295" style="fill:none;stroke:black;stroke-width:1px;stroke-miterlimit:3;"/>
                        </g>
                    </g>
                    <g transform="matrix(5.4,0,0,1,-1770,545)">
                        <g transform="matrix(0.222222,-0,-0,1,316.667,-205)">
                            <path d="M6.5,3.151L5,0.901L3.5,3.151" style="fill:none;stroke:black;stroke-width:1px;"/>
                            <path d="M6.5,296.849L5,299.099L3.5,296.849" style="fill:none;stroke:black;stroke-width:1px;"/>
                            <path d="M5,0.901L5,299.099" style="fill:none;stroke:black;stroke-width:1px;stroke-miterlimit:3;"/>
                        </g>
                    </g>
                    <g transform="matrix(1.27279,-1.06066,1.27279,1.06066,-287.554,453.089)">
                        <g transform="matrix(0.471405,0.471405,-0.471405,0.471405,142.702,36.0807)">
                            <path d="M240.47,93.467C240.762,93.174 241.237,93.174 241.53,93.467C241.823,93.76 241.823,94.235 241.53,94.528C241.237,94.821 240.762,94.821 240.47,94.528C240.177,94.235 240.177,93.76 240.47,93.467Z"/>
                            <path d="M236.757,98.24C237.202,97.795 244.864,90.134 245.242,89.755C247.584,92.096 247.584,95.899 245.242,98.24C242.901,100.582 239.099,100.582 236.757,98.24Z" style="fill:none;stroke:black;stroke-width:0.5px;stroke-linecap:square;stroke-miterlimit:3;stroke-dasharray:0.5,2,0,0,0,0;"/>
                        </g>
                    </g>
                </g>
                <g id="Labels" transform="matrix(1.11111,0,0,1,-33.3333,-2.27374e-13)">
                    <g transform="matrix(1.2,0,0,1,-84.6,392)">
                        <g transform="matrix(4,0,0,4,375,20.48)">
                        </g>
                        <text x="370.2px" y="20.48px" style="font-family:'IBMPlexMono-Bold', 'IBM Plex Mono', monospace;font-weight:700;font-size:4px;">22</text>
                    </g>
                    <g transform="matrix(1.2,0,0,1,-72.6,449.5)">
                        <g transform="matrix(4,0,0,4,372.4,23)">
                        </g>
                        <text x="367.6px" y="23px" style="font-family:'IBMPlexMono-Bold', 'IBM Plex Mono', monospace;font-weight:700;font-size:4px;">39</text>
                    </g>
                    <g transform="matrix(1.2,0,0,1,-57,423.5)">
                        <g transform="matrix(4,0,0,4,375,20.48)">
                        </g>
                        <text x="370.2px" y="20.48px" style="font-family:'IBMPlexMono-Bold', 'IBM Plex Mono', monospace;font-weight:700;font-size:4px;">63</text>
                    </g>
                    <g transform="matrix(1.2,0,0,1,-136.2,360.02)">
                        <g transform="matrix(4,0,0,4,369.8,20.48)">
                        </g>
                        <text x="365px" y="20.48px" style="font-family:'IBMPlexMono-Bold', 'IBM Plex Mono', monospace;font-weight:700;font-size:4px;">78</text>
                    </g>
                    <g transform="matrix(1.2,0,0,1,-63.6,382)">
                        <g transform="matrix(4,0,0,4,371.2,23)">
                        </g>
                        <text x="368.8px" y="23px" style="font-family:'IBMPlexMono-Bold', 'IBM Plex Mono', monospace;font-weight:700;font-size:4px;">9</text>
                    </g>
                    <g transform="matrix(1.2,0,0,1,-41.4,386.54)">
                        <g transform="matrix(4,0,0,4,372.2,23)">
                        </g>
                        <text x="365px" y="23px" style="font-family:'IBMPlexMono-Bold', 'IBM Plex Mono', monospace;font-weight:700;font-size:4px;">r=1</text>
                    </g>
                    <g transform="matrix(1.2,0,0,1,-151.2,492.54)">
                        <g transform="matrix(4,0,0,4,369.2,17.96)">
                        </g>
                        <text x="366.8px" y="17.96px" style="font-family:'IBMPlexMono-Bold', 'IBM Plex Mono', monospace;font-weight:700;font-size:4px;">4</text>
                    </g>
                    <g transform="matrix(1.2,0,0,1,-147,448)">
                        <g transform="matrix(4,0,0,4,371,19.48)">
                        </g>
                        <text x="368.6px" y="19.48px" style="font-family:'IBMPlexMono-Bold', 'IBM Plex Mono', monospace;font-weight:700;font-size:4px;">4</text>
                    </g>
                    <g transform="matrix(1.2,0,0,1,-175.8,535)">
                        <g transform="matrix(4,0,0,4,371,17.96)">
                        </g>
                        <text x="368.6px" y="17.96px" style="font-family:'IBMPlexMono-Bold', 'IBM Plex Mono', monospace;font-weight:700;font-size:4px;">4</text>
                    </g>
                    <g transform="matrix(1.2,0,0,1,-198,516.5)">
                        <g transform="matrix(4,0,0,4,371,17.96)">
                        </g>
                        <text x="368.6px" y="17.96px" style="font-family:'IBMPlexMono-Bold', 'IBM Plex Mono', monospace;font-weight:700;font-size:4px;">4</text>
                    </g>
                    <g transform="matrix(1.2,0,0,1,-160.8,536.5)">
                        <g transform="matrix(4,0,0,4,376.8,17.96)">
                        </g>
                        <text x="367.2px" y="17.96px" style="font-family:'IBMPlexMono-Bold', 'IBM Plex Mono', monospace;font-weight:700;font-size:4px;">r=12</text>
                    </g>
                    <g transform="matrix(1.2,0,0,1,-189,500)">
                        <g transform="matrix(4,0,0,4,374.6,19.48)">
                        </g>
                        <text x="365px" y="19.48px" style="font-family:'IBMPlexMono-Bold', 'IBM Plex Mono', monospace;font-weight:700;font-size:4px;">r=12</text>
                    </g>
                    <g transform="matrix(1.2,0,0,1,-129,446)">
                        <g transform="matrix(4,0,0,4,369.8,19.48)">
                        </g>
                        <text x="365px" y="19.48px" style="font-family:'IBMPlexMono-Bold', 'IBM Plex Mono', monospace;font-weight:700;font-size:4px;">12</text>
                    </g>
                    <g transform="matrix(1.2,0,0,1,-129.6,498.54)">
                        <g transform="matrix(4,0,0,4,370.4,17.96)">
                        </g>
                        <text x="365.6px" y="17.96px" style="font-family:'IBMPlexMono-Bold', 'IBM Plex Mono', monospace;font-weight:700;font-size:4px;">12</text>
                    </g>
                    <g transform="matrix(1.2,0,0,1,-177,511.77)">
                        <g transform="matrix(4,0,0,4,372.2,19.73)">
                        </g>
                        <text x="365px" y="19.73px" style="font-family:'IBMPlexMono-Bold', 'IBM Plex Mono', monospace;font-weight:700;font-size:4px;">r=6</text>
                    </g>
                    <g transform="matrix(1.2,0,0,1,-109.8,415.75)">
                        <g transform="matrix(4,0,0,4,372.2,19.73)">
                        </g>
                        <text x="365px" y="19.73px" style="font-family:'IBMPlexMono-Bold', 'IBM Plex Mono', monospace;font-weight:700;font-size:4px;">r=6</text>
                    </g>
                    <g transform="matrix(1.2,0,0,1,-88.2,472)">
                        <g transform="matrix(4,0,0,4,374.6,19.48)">
                        </g>
                        <text x="365px" y="19.48px" style="font-family:'IBMPlexMono-Bold', 'IBM Plex Mono', monospace;font-weight:700;font-size:4px;">r=16</text>
                    </g>
                    <g transform="matrix(1.2,0,0,1,-112.8,483.48)">
                        <g transform="matrix(4,0,0,4,373.4,21)">
                        </g>
                        <text x="368.6px" y="21px" style="font-family:'IBMPlexMono-Bold', 'IBM Plex Mono', monospace;font-weight:700;font-size:4px;">30</text>
                    </g>
                    <g transform="matrix(1.2,0,0,1,-151.8,509)">
                        <g transform="matrix(4,0,0,4,375,20.48)">
                        </g>
                        <text x="370.2px" y="20.48px" style="font-family:'IBMPlexMono-Bold', 'IBM Plex Mono', monospace;font-weight:700;font-size:4px;">44</text>
                    </g>
                    <g transform="matrix(1.2,0,0,1,-153,428)">
                        <g transform="matrix(4,0,0,4,376,22.48)">
                        </g>
                        <text x="371.2px" y="22.48px" style="font-family:'IBMPlexMono-Bold', 'IBM Plex Mono', monospace;font-weight:700;font-size:4px;">30</text>
                    </g>
                    <g transform="matrix(1.2,0,0,1,-180,483)">
                        <g transform="matrix(4,0,0,4,373.4,21)">
                        </g>
                        <text x="368.6px" y="21px" style="font-family:'IBMPlexMono-Bold', 'IBM Plex Mono', monospace;font-weight:700;font-size:4px;">34</text>
                    </g>
                    <g transform="matrix(1.2,0,0,1,-169.2,449.5)">
                        <g transform="matrix(4,0,0,4,373.4,23)">
                        </g>
                        <text x="368.6px" y="23px" style="font-family:'IBMPlexMono-Bold', 'IBM Plex Mono', monospace;font-weight:700;font-size:4px;">40</text>
                    </g>
                    <g transform="matrix(1.2,0,0,1,-202.8,449.5)">
                        <g transform="matrix(4,0,0,4,373.4,23)">
                        </g>
                        <text x="368.6px" y="23px" style="font-family:'IBMPlexMono-Bold', 'IBM Plex Mono', monospace;font-weight:700;font-size:4px;">16</text>
                    </g>
                    <g transform="matrix(1.2,0,0,1,-184.2,463)">
                        <g transform="matrix(4,0,0,4,369.8,20.48)">
                        </g>
                        <text x="365px" y="20.48px" style="font-family:'IBMPlexMono-Bold', 'IBM Plex Mono', monospace;font-weight:700;font-size:4px;">16</text>
                    </g>
                    <g transform="matrix(1.2,0,0,1,-135.6,420.5)">
                        <g transform="matrix(4,0,0,4,373.4,17.96)">
                        </g>
                        <text x="368.6px" y="17.96px" style="font-family:'IBMPlexMono-Bold', 'IBM Plex Mono', monospace;font-weight:700;font-size:4px;">16</text>
                    </g>
                    <g transform="matrix(1.2,0,0,1,-154.2,407)">
                        <g transform="matrix(4,0,0,4,377,20.48)">
                        </g>
                        <text x="372.2px" y="20.48px" style="font-family:'IBMPlexMono-Bold', 'IBM Plex Mono', monospace;font-weight:700;font-size:4px;">16</text>
                    </g>
                    <g transform="matrix(1.2,0,0,1,-123.6,449.5)">
                        <g transform="matrix(4,0,0,4,375.4,23)">
                        </g>
                        <text x="370.6px" y="23px" style="font-family:'IBMPlexMono-Bold', 'IBM Plex Mono', monospace;font-weight:700;font-size:4px;">40</text>
                    </g>
                    <g transform="matrix(1.2,0,0,1,-147,477)">
                        <g transform="matrix(4,0,0,4,371,19.48)">
                        </g>
                        <text x="366.2px" y="19.48px" style="font-family:'IBMPlexMono-Bold', 'IBM Plex Mono', monospace;font-weight:700;font-size:4px;">22</text>
                    </g>
                    <g transform="matrix(1.2,0,0,1,-396,469)">
                        <g transform="matrix(8,0,0,8,379.4,23.96)">
                        </g>
                        <text x="365px" y="23.96px" style="font-family:'IBMPlexMono-Bold', 'IBM Plex Mono', monospace;font-weight:700;font-size:8px;">300</text>
                    </g>
                    <g transform="matrix(1.2,0,0,1,-162,603)">
                        <g transform="matrix(8,0,0,8,392.2,27)">
                        </g>
                        <text x="377.8px" y="27px" style="font-family:'IBMPlexMono-Bold', 'IBM Plex Mono', monospace;font-weight:700;font-size:8px;">450</text>
                    </g>
                </g>
            </g>
        </g>
    </g>
</svg>
