<?xml version="1.0" encoding="UTF-8" standalone="no"?>
<!DOCTYPE svg PUBLIC "-//W3C//DTD SVG 1.1//EN" "http://www.w3.org/Graphics/SVG/1.1/DTD/svg11.dtd">
<svg width="100%" height="100%" viewBox="0 0 600 300" version="1.1" xmlns="http://www.w3.org/2000/svg" xmlns:xlink="http://www.w3.org/1999/xlink" xml:space="preserve" xmlns:serif="http://www.serif.com/" style="fill-rule:evenodd;clip-rule:evenodd;stroke-linejoin:round;stroke-miterlimit:2;">
    <g transform="matrix(1,0,0,1,0,-350)">
        <g id="Swallowtail" transform="matrix(1,0,0,1,-5.68434e-14,10)">
            <rect x="0" y="340" width="600" height="300" style="fill:none;"/>
            <clipPath id="_clip1">
                <rect x="0" y="340" width="600" height="300"/>
            </clipPath>
            <g clip-path="url(#_clip1)">
                <g id="Background" transform="matrix(1.33333,0,0,1,1.42109e-13,340)">
                    <path d="M0,300L0,0L450,0L225,150L450,300L0,300Z" style="fill:rgb(0,71,171);"/>
                </g>
                <g transform="matrix(1,0,0,1,150,490)">
                    <g transform="matrix(1,0,0,1,-150,-150)">
                        <g id="Monogram" transform="matrix(0.385714,0,0,0.4,-81.4286,30)">
                            <g>
                                <path d="M600,215L600,120L641.481,160M537.778,440L537.778,450.005C537.778,466.571 551.704,480 568.884,480C568.885,480 568.887,480 568.889,480C577.14,480 585.053,476.839 590.888,471.213C596.722,465.587 600,457.956 600,450C600,444.26 600,305 600,305" style="fill:none;stroke:white;stroke-width:35.63px;stroke-linecap:round;stroke-linejoin:miter;stroke-miterlimit:3;"/>
                                <path d="M600,232.5L600,215M600,305L600,287.5" style="fill:none;stroke:white;stroke-width:35.63px;stroke-miterlimit:3;"/>
                                <path d="M646.667,340C646.667,340 703.704,340 703.704,340C726.613,340 745.185,322.091 745.185,300C745.185,300 745.185,300 745.185,300C745.185,277.909 726.613,260 703.704,260C703.704,260 454.815,260 454.815,260L496.296,300M496.296,400L485.926,400C477.675,400 469.762,396.839 463.927,391.213C458.093,385.587 454.815,377.956 454.815,370C454.815,370 454.815,370 454.815,370C454.815,362.043 458.093,354.413 463.927,348.787C469.762,343.161 477.675,340 485.926,340C491.878,340 553.333,340 553.333,340" style="fill:none;stroke:white;stroke-width:35.63px;stroke-linecap:round;stroke-linejoin:miter;stroke-miterlimit:3;"/>
                                <path d="M628.519,340L646.667,340M553.333,340L571.481,340" style="fill:none;stroke:white;stroke-width:35.63px;stroke-miterlimit:3;"/>
                            </g>
                        </g>
                        <g id="Flower" transform="matrix(0,0.555556,-0.666667,5.55112e-17,495.667,-182.333)">
                            <g transform="matrix(1.4988e-16,-1.5,1.8,0,411,400)">
                                <g transform="matrix(1,0,0,1,-25,-25)">
                                    <g id="Petal" transform="matrix(0.666667,2.55651e-17,2.99461e-17,0.666667,-228.3,9)">
                                        <path d="M380,60C380,60 383.565,53.316 386.673,47.49C389.502,42.185 389.496,35.818 386.657,30.519C383.535,24.69 379.951,18 379.951,18C379.951,18 376.382,24.662 373.264,30.481C370.414,35.801 370.42,42.196 373.28,47.51C376.412,53.332 380,60 380,60Z" style="fill:white;"/>
                                    </g>
                                </g>
                            </g>
                            <g transform="matrix(1.8,-9.18485e-17,-3.96619e-17,1.5,456,362.5)">
                                <g transform="matrix(1,0,0,1,-25,-25)">
                                    <g id="Petal1" serif:id="Petal" transform="matrix(0.666667,2.55651e-17,2.99461e-17,0.666667,-228.3,9)">
                                        <path d="M380,60C380,60 383.565,53.316 386.673,47.49C389.502,42.185 389.496,35.818 386.657,30.519C383.535,24.69 379.951,18 379.951,18C379.951,18 376.382,24.662 373.264,30.481C370.414,35.801 370.42,42.196 373.28,47.51C376.412,53.332 380,60 380,60Z" style="fill:white;"/>
                                    </g>
                                </g>
                            </g>
                            <g transform="matrix(-3.70317e-16,1.5,-1.8,-1.83697e-16,501,400)">
                                <g transform="matrix(1,0,0,1,-25,-25)">
                                    <g id="Petal2" serif:id="Petal" transform="matrix(0.666667,2.55651e-17,2.99461e-17,0.666667,-228.3,9)">
                                        <path d="M380,60C380,60 383.565,53.316 386.673,47.49C389.502,42.185 389.496,35.818 386.657,30.519C383.535,24.69 379.951,18 379.951,18C379.951,18 376.382,24.662 373.264,30.481C370.414,35.801 370.42,42.196 373.28,47.51C376.412,53.332 380,60 380,60Z" style="fill:white;"/>
                                    </g>
                                </g>
                            </g>
                            <g transform="matrix(-1.8,-1.79151e-15,2.29969e-15,-1.5,456,437.5)">
                                <g transform="matrix(1,0,0,1,-25,-25)">
                                    <g id="Petal3" serif:id="Petal" transform="matrix(0.666667,2.55651e-17,2.99461e-17,0.666667,-228.3,9)">
                                        <path d="M380,60C380,60 383.565,53.316 386.673,47.49C389.502,42.185 389.496,35.818 386.657,30.519C383.535,24.69 379.951,18 379.951,18C379.951,18 376.382,24.662 373.264,30.481C370.414,35.801 370.42,42.196 373.28,47.51C376.412,53.332 380,60 380,60Z" style="fill:white;"/>
                                    </g>
                                </g>
                            </g>
                        </g>
                    </g>
                </g>
            </g>
        </g>
    </g>
</svg>
