<?xml version="1.0" encoding="UTF-8" standalone="no"?>
<!DOCTYPE svg PUBLIC "-//W3C//DTD SVG 1.1//EN" "http://www.w3.org/Graphics/SVG/1.1/DTD/svg11.dtd">
<svg width="100%" height="100%" viewBox="0 0 600 300" version="1.1" xmlns="http://www.w3.org/2000/svg" xmlns:xlink="http://www.w3.org/1999/xlink" xml:space="preserve" xmlns:serif="http://www.serif.com/" style="fill-rule:evenodd;clip-rule:evenodd;stroke-linejoin:round;stroke-miterlimit:2;">
    <g transform="matrix(1,0,0,1,0,-350)">
        <g id="Swallowtail" transform="matrix(1,0,0,1,-5.68434e-14,10)">
            <rect x="0" y="340" width="600" height="300" style="fill:none;"/>
            <clipPath id="_clip1">
                <rect x="0" y="340" width="600" height="300"/>
            </clipPath>
            <g clip-path="url(#_clip1)">
                <g id="Background" transform="matrix(1.33333,0,0,1,1.42109e-13,340)">
                    <path d="M0,300L0,0L450,0L225,150L450,300L0,300Z" style="fill:rgb(0,71,171);"/>
                </g>
                <g transform="matrix(1,0,0,1,150,490)">
                    <g transform="matrix(1,0,0,1,-150,-150)">
                        <rect id="Seal" x="0" y="0" width="300" height="300" style="fill:none;"/>
                        <g id="Seal1" serif:id="Seal">
                            <g id="Monogram" transform="matrix(0.385714,0,0,0.4,-81.4286,30)">
                                <g>
                                    <path d="M600,200L600,120L641.481,160M537.778,440L537.778,450.005C537.778,466.571 551.704,480 568.884,480C568.885,480 568.887,480 568.889,480C577.14,480 585.053,476.839 590.888,471.213C596.722,465.587 600,457.956 600,450C600,444.26 600,320 600,320" style="fill:none;stroke:white;stroke-width:30.54px;stroke-linecap:round;stroke-linejoin:miter;stroke-miterlimit:3;"/>
                                    <path d="M600,235L600,200M600,320L600,285" style="fill:none;stroke:white;stroke-width:30.54px;stroke-miterlimit:3;"/>
                                    <path d="M662.222,340L703.704,340C726.613,340 745.185,322.091 745.185,300C745.185,300 745.185,300 745.185,300C745.185,277.909 726.613,260 703.704,260C703.704,260 454.815,260 454.815,260L496.296,300M496.296,400L485.926,400C477.675,400 469.762,396.839 463.927,391.213C458.093,385.587 454.815,377.956 454.815,370C454.815,370 454.815,370 454.815,370C454.815,362.043 458.093,354.413 463.927,348.787C469.762,343.161 477.675,340 485.926,340C491.878,340 537.778,340 537.778,340" style="fill:none;stroke:white;stroke-width:30.54px;stroke-linecap:round;stroke-linejoin:miter;stroke-miterlimit:3;"/>
                                    <path d="M625.926,340L662.222,340M537.778,340L574.074,340" style="fill:none;stroke:white;stroke-width:30.54px;stroke-miterlimit:3;"/>
                                </g>
                            </g>
                            <g id="Flower" transform="matrix(0,0.555556,-0.666667,5.55112e-17,495.667,-182.333)">
                                <g transform="matrix(-1.2,1.22465e-16,-1.46958e-16,-1,912,461.5)">
                                    <path d="M380,60C380,60 382.656,55.131 385.082,50.683C387.524,46.206 387.524,40.794 385.082,36.317C382.656,31.869 380,27 380,27C380,27 377.344,31.869 374.918,36.317C372.476,40.794 372.476,46.206 374.918,50.683C377.344,55.131 380,60 380,60Z" style="fill:white;"/>
                                </g>
                                <g transform="matrix(1.45937e-16,-1,1.2,-4.49191e-17,382.2,780)">
                                    <path d="M380,60C380,60 382.656,55.131 385.082,50.683C387.524,46.206 387.524,40.794 385.082,36.317C382.656,31.869 380,27 380,27C380,27 377.344,31.869 374.918,36.317C372.476,40.794 372.476,46.206 374.918,50.683C377.344,55.131 380,60 380,60Z" style="fill:white;"/>
                                </g>
                                <g transform="matrix(1.2,-2.28848e-17,2.74617e-17,1,4.60454e-12,338.5)">
                                    <path d="M380,60C380,60 382.656,55.131 385.082,50.683C387.524,46.206 387.524,40.794 385.082,36.317C382.656,31.869 380,27 380,27C380,27 377.344,31.869 374.918,36.317C372.476,40.794 372.476,46.206 374.918,50.683C377.344,55.131 380,60 380,60Z" style="fill:white;"/>
                                </g>
                                <g transform="matrix(1.02044e-18,1,-1.2,1.67384e-16,529.8,20)">
                                    <path d="M380,60C380,60 382.656,55.131 385.082,50.683C387.524,46.206 387.524,40.794 385.082,36.317C382.656,31.869 380,27 380,27C380,27 377.344,31.869 374.918,36.317C372.476,40.794 372.476,46.206 374.918,50.683C377.344,55.131 380,60 380,60Z" style="fill:white;"/>
                                </g>
                            </g>
                        </g>
                    </g>
                </g>
            </g>
        </g>
    </g>
</svg>
